<svg width="1067" height="600" viewBox="0 0 1067 600" fill="none" xmlns="http://www.w3.org/2000/svg">
<g clip-path="url(#clip0_216_1260)">
<path d="M-38.6699 326C-3.12992 286.5 9.33008 270 7.33008 268C4.69008 265.3 -23.4099 289.5 -25.6699 287C-27.6699 284.83 -6.35992 266.76 10.3301 239C20.6822 221.665 28.1146 202.746 32.3301 183C36.7278 193.79 42.0825 204.165 48.3301 214C70.1101 248.22 96.6201 265.94 93.3301 271C92.4201 272.41 89.0301 273.1 77.3301 269C77.5201 270.76 78.1501 277.62 75.3301 279C71.1701 281 61.9901 267.5 61.3301 268C60.6701 268.5 70.7601 286.46 90.3301 309C104.65 325.49 115.45 334.61 114.33 336C113.72 336.77 109.48 335.23 91.3301 323C93.5101 330.88 93.8434 335.213 92.3301 336C90.0834 337.167 83.7501 330.5 73.3301 316C75.9005 326.198 79.9429 335.967 85.3301 345C87.9901 349.43 93.6601 358.18 114.33 378C134.78 397.61 147.33 406.44 146.33 408C145.71 408.95 140.05 407.19 116.33 394C119.717 403.207 120.717 408.207 119.33 409C117.33 410.14 110.33 402.473 98.3301 386C101.883 395.78 102.883 401.113 101.33 402C98.8634 403.413 89.8634 393.413 74.3301 372C93.9261 409.92 119.599 444.376 150.33 474L123.33 463C129.422 473.372 136.099 483.388 143.33 493C157.57 511.93 170.01 524 168.33 526C166.04 528.66 140.88 508.28 137.33 512C134.33 515.11 149.18 532.27 147.33 534C145.97 535.28 135.87 527.77 107.33 501C125.963 533.787 151.154 562.382 181.33 585C166.77 580.393 158.77 579.393 157.33 582C155.37 585.573 165.703 595.907 188.33 613L-58.6699 622C-51.9966 523.333 -45.3299 424.667 -38.6699 326Z" fill="url(#paint0_linear_216_1260)"/>
<path d="M35.3295 191C37.3295 190.29 40.9795 195.56 43.3295 199C48.7295 206.89 47.3295 209.23 51.3295 214C56.3295 219.92 59.8395 218 65.3295 224C69.7395 228.83 67.7695 230.44 72.3295 238C78.3995 248.05 83.8595 248.48 88.3295 258C89.8113 261.169 90.822 264.538 91.3295 268C87.5473 268.393 83.7315 267.699 80.3295 266C74.3295 262.88 74.3295 258.38 68.3295 256C63.8195 254.22 62.1995 256.11 58.3295 254C55.7495 252.59 53.8995 250.34 51.3295 245C46.5195 235 47.9795 232.3 44.3295 224C40.4695 215.21 37.7395 215.77 35.3295 208C32.9995 200.58 32.9995 191.82 35.3295 191Z" fill="url(#paint1_linear_216_1260)"/>
<path d="M55.331 263C56.571 262.51 59.021 265.85 61.331 269C64.391 273.17 64.751 274.81 67.331 279C70.871 284.73 71.441 283.67 76.331 291C78.871 294.8 79.531 296.31 82.331 300C84.331 302.69 86.271 304.86 87.331 306C93.871 313 99.201 313.78 104.331 318C107.781 320.83 112.051 326 114.331 336C110.217 333.868 106.212 331.532 102.331 329C98.221 326.31 94.561 323.6 91.331 321C90.111 322.92 88.331 325.17 86.331 325C83.901 324.78 83.111 321 79.331 314C75.701 307.29 73.561 303.44 69.331 301C64.871 298.43 63.221 300.39 60.331 298C56.961 295.21 57.851 291.42 56.331 278C55.221 268.13 54.001 263.53 55.331 263Z" fill="url(#paint2_linear_216_1260)"/>
<path d="M69.3306 314C70.8306 313.59 73.7506 318.75 75.3306 323C76.9906 327.44 76.3306 328.58 77.3306 332C79.9506 340.75 86.3306 339.74 91.3306 350C93.2506 353.9 93.3306 356.15 96.3306 360C98.1227 362.198 100.133 364.208 102.331 366C105.901 369.13 107.521 370 111.331 373C114.041 375.14 114.881 376 119.331 380C130.191 389.71 131.871 390.44 137.331 396C142.131 400.89 146.101 404.93 145.331 406C144.221 407.54 133.051 403.13 126.331 397C124.754 395.558 123.083 394.222 121.331 393C120.331 392.31 114.251 388 113.331 389C112.651 389.72 115.501 392.6 118.331 399C119.801 402.31 121.451 406 120.331 407C119.211 408 115.071 406 112.331 403C107.781 398 110.481 393.89 106.331 389C102.561 384.55 99.0406 386.44 96.3306 382C93.7906 377.83 96.1506 374.95 93.3306 371C91.2506 368.08 88.7506 368 85.3306 366C80.0906 363 77.6906 358.41 74.3306 352C69.0806 342 68.7606 333.43 68.3306 322C68.0906 315.63 68.6406 314.19 69.3306 314Z" fill="url(#paint3_linear_216_1260)"/>
<path d="M23.3298 341C21.1698 349.79 19.7598 354.57 19.3298 356C17.8198 361.08 16.5198 365.43 14.3298 371C11.5998 377.95 10.5098 379.07 7.32978 387C5.45978 391.69 4.24978 395.27 3.32978 398C0.449782 406.6 -7.88022 431.42 -4.67022 433C-3.35022 433.65 0.429783 430.62 11.3298 414C12.3298 420.54 13.4598 421.92 14.3298 422C16.8898 422.23 18.6898 411.34 25.3298 392C30.9198 375.76 33.3298 372.88 36.3298 360C37.7918 353.748 38.7945 347.398 39.3298 341C40.1598 331.35 40.0798 320.25 38.3298 320C36.5798 319.75 34.4198 330.28 32.3298 330C30.2398 329.72 30.7298 319.11 29.3298 319C28.1398 318.9 26.8998 326.53 23.3298 341Z" fill="url(#paint4_linear_216_1260)"/>
<path d="M74.3296 372C75.4096 373 78.5496 376.17 82.3296 383C86.9196 391.29 85.6596 392.72 89.3296 398C92.8396 403 94.0896 401.86 99.3296 408C103.96 413.42 103.9 415.41 109.33 423C111.54 426.08 113.83 428.76 118.33 434C127.5 444.67 129.55 446.13 135.33 453C141.11 459.87 149.85 470.25 148.33 472C147.33 473.12 141.86 471.19 120.33 456C119.47 461.687 118.136 464.687 116.33 465C112.643 465.667 106.976 455 99.3296 433C97.1096 428.74 93.8796 423.48 91.3296 424C87.9796 424.69 88.3296 434.86 86.3296 435C84.3296 435.14 82.6196 423.49 77.3296 405C73.7196 392.39 71.9196 386.08 69.3296 380C65.9996 372.17 62.9796 367.1 64.3296 366C65.6796 364.9 71.3296 369.12 74.3296 372Z" fill="url(#paint5_linear_216_1260)"/>
<path d="M67.3302 439C71.0802 438.16 76.1202 445.44 78.3302 450C80.5402 454.56 79.5602 455.58 81.3302 460C84.7402 468.49 89.6902 468.07 94.3302 476C97.3302 481.1 95.4702 481.61 99.3302 495C102.04 504.39 105.12 511.64 104.33 512C103.33 512.45 99.6102 500.81 92.3302 500C88.0802 499.53 86.3302 503.16 83.3302 502C80.0902 500.73 80.8702 495.82 77.3302 485C76.0668 480.844 74.3919 476.824 72.3302 473C67.9502 465.05 65.3302 465 63.3302 460C60.0002 451.42 63.1002 440 67.3302 439Z" fill="url(#paint6_linear_216_1260)"/>
<path d="M112.33 481C115.7 479.32 124.07 489.44 125.33 491C128.19 494.52 127.86 495.18 132.33 501C136.33 506.15 137.13 506.39 138.33 509C140.64 514 138.86 516.06 140.33 521C142.87 529.53 151 533 150.33 534C149.66 535 142.43 532.77 136.33 527C130.23 521.23 131.84 518.09 125.33 510C119.33 502.56 116.33 503.12 113.33 497C110.19 490.59 109.74 482.29 112.33 481Z" fill="url(#paint7_linear_216_1260)"/>
<path d="M121.329 468C123.069 466.36 131.059 469.93 135.329 476C137.559 479.16 137.249 480.85 140.329 485C142.759 488.27 144.779 489.7 147.329 492C150.889 495.22 153.329 498.48 158.329 505C166.279 515.45 173.329 524.71 171.329 527C169.589 529 160.749 525.89 155.329 520C151.499 515.84 152.609 513.79 148.329 509C143.609 503.71 141.029 504.82 136.329 500C134.069 497.68 133.779 496.51 128.329 485C121.789 471.18 120.349 468.94 121.329 468Z" fill="url(#paint8_linear_216_1260)"/>
<path d="M34.3299 491C30.7599 498.05 31.9599 498.1 28.3299 505C24.3999 512.49 22.0799 514.17 18.3299 522C16.0999 526.67 16.4399 527.1 14.3299 532C9.10988 544.16 5.10988 546 0.329876 556C-4.45012 566 -6.30012 576.25 -4.67012 577C-2.73012 577.89 1.00988 563.83 13.3299 559C16.3299 557.84 19.6499 557.26 22.3299 554C24.6799 551.15 24.2499 549 26.3299 545C28.6199 540.58 31.2499 539.09 34.3299 536C38.0099 532.31 40.1199 527.87 44.3299 519C47.5099 512.32 56.3299 493.83 52.3299 491C50.6999 489.83 48.2599 492.32 46.3299 491C42.5099 488.38 48.1799 475.88 46.3299 475C44.7899 474.26 38.8699 482.06 34.3299 491Z" fill="url(#paint9_linear_216_1260)"/>
<path d="M76.3301 534C75.5001 534.71 75.5301 537 83.3301 552C87.4901 560 89.9501 564.1 94.3301 572C103.23 588 102.15 587.47 104.33 590C111.41 598.19 115.89 596.27 128.33 605C141.69 614.37 147.88 624.54 150.33 623C152.78 621.46 146.69 609.74 150.33 607C153.52 604.61 161.26 611.28 162.33 610C163.4 608.72 155.48 600.44 143.33 587C132.93 575.49 127.73 569.73 126.33 568C119.26 559.24 117.39 555.66 111.33 552C106.01 548.78 105.15 550.16 98.3301 546C93.6901 543.17 91.0101 540.66 84.3301 537C79.6501 534.44 77.3001 533.17 76.3301 534Z" fill="url(#paint10_linear_216_1260)"/>
<path d="M26.3295 205C24.8095 205 24.1495 207.8 20.3295 215C18.4985 218.432 16.4959 221.769 14.3295 225C10.9395 230.13 10.8195 229.42 9.32953 232C4.42953 240.48 7.64953 244.91 3.32953 249C0.0495307 252.1 -2.61047 250.3 -6.67047 254C-9.75047 256.81 -10.5805 260 -11.6705 263C-16.5905 276.5 -25.8005 282.83 -24.6705 284C-23.2705 285.43 -9.62047 275.28 -1.67047 268C3.11953 263.62 4.76953 262.56 5.32953 262C14.2495 253.08 16.0995 245.57 18.3295 246C21.9595 246.74 19.1495 267.37 22.3295 268C24.4095 268.41 28.6795 260.1 30.3295 252C31.5495 246 30.4995 244.13 32.3295 237C34.0095 230.48 35.2395 230.71 35.3295 227C35.3295 225.59 35.2295 223.86 30.3295 212C27.9995 206.23 27.3195 205 26.3295 205Z" fill="url(#paint11_linear_216_1260)"/>
<path d="M14.34 277.94C6.10003 279.94 1.49003 287.05 0.340027 288.94C-2.86997 294.27 -1.39997 296.13 -4.65997 300.94C-7.91997 305.75 -10.12 305.16 -15.66 309.94C-17.22 311.29 -18.93 312.94 -30.66 330.94C-36.15 339.35 -37.28 341.29 -36.66 341.94C-36.36 342.26 -35.43 342.45 -17.66 331.94C-16.79 331.43 -15 330.36 -12.66 328.94C-11.86 328.45 -6.36997 325.11 -4.65997 323.94C-0.209973 320.94 0.340027 317.8 5.34003 309.94C10.1 302.53 10.79 303.55 17.34 293.94C25.59 281.85 24.84 279.74 24.34 278.94C22.44 276 15.1 277.76 14.34 277.94Z" fill="url(#paint12_linear_216_1260)"/>
<path opacity="0.68" d="M55.3304 266C54.7393 269.639 54.4052 273.314 54.3304 277C54.3304 279.54 54.0304 299.23 60.3304 301C61.9504 301.46 62.6904 300.36 65.3304 301C67.9704 301.64 69.7304 303.45 71.3304 305C72.9304 306.55 73.0204 307.2 76.3304 312C78.9204 315.75 79.0304 315.59 81.3304 319C84.3304 323.37 85.1004 325.11 85.3304 325C85.8004 324.78 84.0104 317.34 79.3304 310C76.3304 305.22 72.6804 301.52 66.3304 295C65.4604 294.1 64.8104 293.45 64.3304 292.95L62.3304 291C59.3304 288.06 57.3304 279 57.3304 279C56.3818 274.715 55.7137 270.372 55.3304 266Z" fill="url(#paint13_linear_216_1260)"/>
<path opacity="0.68" d="M40.3301 216C42.6601 222.31 44.3301 227.5 45.3301 231C47.3301 237.8 47.9601 240.88 50.3301 246C53.2701 252.32 54.8301 255.57 58.3301 257C61.8301 258.43 64.2101 256.63 68.3301 259C69.9701 259.94 69.8101 260.35 73.3301 263C75.193 264.528 77.2028 265.868 79.3301 267C81.1401 267.85 84.7301 269.08 90.3301 268C86.6122 263.265 81.8107 259.492 76.3301 257C73.3301 255.68 71.3301 255.37 66.3301 253C61.7101 250.82 58.8501 249.47 56.3301 247C52.7201 243.47 52.0301 239.82 50.3301 235C47.9041 228.229 44.5378 221.833 40.3301 216Z" fill="url(#paint14_linear_216_1260)"/>
<path opacity="0.68" d="M63.3301 366C64.0101 369 65.0301 373.54 66.3301 379C69.2501 391.23 69.6401 391.74 71.3301 399C74.3301 411.73 74.7201 417 78.3301 428C79.3301 431.13 82.5001 440.29 85.3301 440C87.3901 439.79 87.8701 434.72 91.3301 434C92.7416 433.821 94.1691 434.177 95.3301 435C102.6 439.3 100.7 450.28 108.33 459C110.567 461.516 113.288 463.557 116.33 465C110.63 454.39 106.83 446 104.33 440C101.99 434.4 100.51 430.27 96.3301 426C93.4001 423 91.3301 422.18 87.3301 418C84.7551 415.196 82.414 412.186 80.3301 409C75.6601 401.9 69.0001 386.59 63.3301 366Z" fill="url(#paint15_linear_216_1260)"/>
<path opacity="0.68" d="M64.3303 441C63.9762 444.697 64.3153 448.428 65.3303 452C67.5503 459.62 71.4603 460.86 75.3303 470C77.0002 474.223 78.3376 478.569 79.3303 483C81.0703 489.84 81.1303 492.36 83.3303 495C86.1203 498.35 90.4303 499.59 94.3303 500C94.1703 500.46 92.4703 505.1 88.3303 506C84.6603 506.8 81.5903 504.1 80.3303 503C75.7103 498.93 76.8903 494.85 73.3303 488C69.7703 481.15 67.2303 482.79 63.3303 476C59.8098 469.599 58.4094 462.247 59.3303 455C59.9725 450.028 61.6778 445.254 64.3303 441Z" fill="url(#paint16_linear_216_1260)"/>
<path opacity="0.68" d="M44.3302 476C40.9582 478.603 37.9336 481.628 35.3302 485C31.2402 490.33 31.2702 492.62 25.3302 502C24.0602 504 24.6702 502.94 19.3302 511C14.3302 518.62 13.3302 520.24 12.3302 522C10.4045 525.543 8.73359 529.219 7.33023 533C1.33023 548.66 -3.49977 561 -1.66977 562C0.160233 563 6.91023 553.89 11.3302 546C13.7902 541.62 14.5002 539.34 17.3302 533C21.3302 524.12 24.1402 519.15 27.3302 513C31.3602 505.25 37.0902 493.45 44.3302 476Z" fill="url(#paint17_linear_216_1260)"/>
<path opacity="0.68" d="M75.3301 536C76.1128 540.051 77.1143 544.057 78.3301 548C80.8301 556.08 84.7001 563.49 92.3301 578C99.5501 591.71 103.22 598.62 106.33 601C112.23 605.52 114.54 603.83 126.33 609C141.26 615.55 149.82 623.65 150.33 623C150.84 622.35 144.26 616.8 132.33 606C112.46 588 109.45 584.57 107.33 582C102.26 575.84 101.91 574.16 92.3301 560C85.3401 549.65 79.3401 541.4 75.3301 536Z" fill="url(#paint18_linear_216_1260)"/>
<path opacity="0.68" d="M124.33 546C129.173 553.996 134.517 561.678 140.33 569C150.24 581.49 158.25 588.83 159.33 588C160.11 587.4 156.75 583 158.33 581C159.49 579.51 162.74 579.93 166.33 581C154.181 567.277 140.019 555.476 124.33 546Z" fill="url(#paint19_linear_216_1260)"/>
<path opacity="0.68" d="M110.329 483C108.549 488.64 109.559 492.2 110.329 494C111.099 495.8 112.209 496.9 117.329 502C121.559 506.2 123.669 508.3 124.329 509C128.332 513.325 131.396 518.432 133.329 524C132.597 518.099 130.908 512.357 128.329 507C125.399 500.95 121.829 496.55 117.329 491C114.569 487.59 112.099 484.87 110.329 483Z" fill="url(#paint20_linear_216_1260)"/>
<path opacity="0.68" d="M121.33 470C122.729 475.085 124.398 480.092 126.33 485C130.14 494.66 132.13 499.54 136.33 502C139.85 504.05 141.75 503.1 145.33 506C148.21 508.33 148.67 510.32 151.33 514C153.85 517.445 156.885 520.481 160.33 523C159.677 519.895 158.67 516.876 157.33 514C153 504.71 146.33 499.5 143.33 497C137.32 492 129.38 483.77 121.33 470Z" fill="url(#paint21_linear_216_1260)"/>
<path opacity="0.68" d="M68.3298 315C67.1151 319.572 66.4438 324.271 66.3298 329C66.0131 335.799 67.0324 342.593 69.3298 349C71.7498 355.58 73.8498 361.28 79.3298 365C82.0198 366.82 84.4598 367.45 89.3298 371C91.4389 372.531 93.4434 374.202 95.3298 376C90.6258 369.928 86.2849 363.584 82.3298 357C79.2833 352.212 76.6088 347.197 74.3298 342C70.7811 333.415 68.7509 324.28 68.3298 315Z" fill="url(#paint22_linear_216_1260)"/>
<path opacity="0.68" d="M27.3301 319C26.3301 321.55 24.9301 325.35 23.3301 330C18.7901 343.26 17.4501 350.05 15.3301 357C10.3301 373.36 6.04008 374.1 0.330078 389C-4.00645 400.522 -6.37283 412.692 -6.66992 425C-4.10992 420.66 -0.609922 414.51 3.33008 407C8.19008 397.75 11.3901 391.65 14.3301 384C17.7001 375.25 19.0901 368.72 21.3301 358C24.0178 345.115 26.0207 332.097 27.3301 319Z" fill="url(#paint23_linear_216_1260)"/>
<path opacity="0.68" d="M18.3304 241C18.0304 243.07 17.6204 246.19 17.3304 250C16.8304 256.7 16.0204 267.37 18.3304 268C19.7704 268.39 22.2204 264.85 23.3304 262C27.0004 252.56 19.4304 242.42 18.3304 241Z" fill="url(#paint24_linear_216_1260)"/>
<path opacity="0.68" d="M21.3301 277C18.5288 275.661 15.357 275.308 12.3301 276C7.90008 277.21 5.79008 280.87 -0.669922 290C-3.27992 293.7 -6.05992 297.29 -8.66992 301C-12.2399 306.09 -17.5399 313.33 -24.6699 322C-12.7699 316.76 -6.34992 310.17 -2.66992 305C1.60008 299 3.33008 293.32 10.3301 286C13.6207 282.568 17.3141 279.546 21.3301 277Z" fill="url(#paint25_linear_216_1260)"/>
<path opacity="0.47" d="M37.3301 191C39.1372 193.23 40.8069 195.567 42.3301 198C47.8201 206.76 46.4901 208.92 50.3301 213C54.8701 217.82 57.7601 215.9 63.3301 222C65.2435 224.147 66.9199 226.494 68.3301 229C70.7901 233.26 70.9301 235.15 72.3301 238C75.4401 244.33 79.6001 244.93 84.3301 250C87.2501 253.13 90.6901 258.29 92.3301 267C88.7554 264.65 85.4076 261.972 82.3301 259C71.0601 248.07 71.7701 241.06 61.3301 230C53.3301 221.52 50.6101 223.21 45.3301 216C39.0501 207.41 37.5901 197.75 37.3301 191Z" fill="url(#paint26_linear_216_1260)"/>
<path opacity="0.47" d="M57.3301 264C62.3301 270.2 65.9701 275.46 68.3301 279C75.1101 289.16 76.2501 292.82 82.3301 300C85.5869 304.055 89.2753 307.743 93.3301 311C100.43 316.59 104.17 317.1 108.33 322C111.423 325.74 113.491 330.22 114.33 335C110.99 328.75 107.13 325.66 104.33 324C98.9901 320.83 95.7501 321.84 90.3301 318C88.6301 316.79 87.0901 315.37 82.3301 309C78.3554 303.885 74.6825 298.543 71.3301 293C65.8414 283.752 61.1575 274.05 57.3301 264Z" fill="url(#paint27_linear_216_1260)"/>
<path opacity="0.47" d="M73.3298 316C73.9332 320.845 75.2825 325.568 77.3298 330C79.0514 333.493 81.0582 336.837 83.3298 340C89.2298 348.81 90.3298 348.49 92.3298 353C95.0498 359.11 93.4898 360.75 96.3298 364C99.1698 367.25 101.14 366.07 106.33 370C110.46 373.12 109.9 374.39 114.33 378C117.81 380.83 118.8 380.58 124.33 384C128.637 386.567 132.659 389.584 136.33 393C141.11 397.56 146.19 404.08 145.33 405C144.47 405.92 137.39 399.05 122.33 390C112.21 383.92 110.15 383.92 104.33 379C99.2318 374.718 94.8441 369.655 91.3298 364C87.9298 358.44 89.0298 358.14 85.3298 351C78.7098 338.2 73.7198 336.3 72.3298 328C71.7097 323.977 72.0524 319.865 73.3298 316Z" fill="url(#paint28_linear_216_1260)"/>
<path opacity="0.47" d="M38.3301 320C37.7501 325.29 37.0801 331.33 36.3301 338C34.7001 352.54 34.3301 355.8 33.3301 360C31.3301 368.94 28.7701 373.89 26.3301 380C21.5695 392.184 18.5401 404.975 17.3301 418C18.5321 409.713 20.8883 401.634 24.3301 394C28.5201 384.81 31.6201 382.34 34.3301 373C35.6301 368.52 34.7001 369.83 37.3301 355C39.4001 343.36 40.3301 340.68 40.3301 335C40.3567 329.932 39.6837 324.884 38.3301 320Z" fill="url(#paint29_linear_216_1260)"/>
<path opacity="0.47" d="M72.33 370C73.33 369.51 78.13 377 83.33 385C90.08 395.42 89.46 395.59 92.33 399C98.33 406.07 100.68 405.05 108.33 413C111.11 415.89 113.85 419.59 119.33 427C125.78 435.72 125.12 435.58 129.33 441C136.33 450.05 138.62 450.93 142.33 457C144.989 461.356 147.01 466.07 148.33 471C140.387 464.303 133.027 456.943 126.33 449C121.85 443.66 120.66 441.58 114.33 434C105.33 423.24 104.62 423.65 97.33 415C83.81 398.94 78.67 388.36 76.33 383C73.99 377.64 71.44 370.45 72.33 370Z" fill="url(#paint30_linear_216_1260)"/>
<path opacity="0.47" d="M71.3292 441C70.7292 441.45 72.9492 444.67 74.3292 448C78.7092 458.56 72.9792 466.39 77.3292 470C79.8292 472.07 82.0592 469.79 85.3292 472C89.0592 474.52 87.6392 478.48 90.3292 486C93.0192 493.52 95.9192 493.66 101.329 505C102.749 508 103.739 510.45 104.329 512C103.885 508.955 103.217 505.947 102.329 503C101.209 499.26 100.399 497.83 99.3292 495C95.9092 485.86 98.3292 484.7 95.3292 478C93.4935 473.796 90.7634 470.042 87.3292 467C84.4892 464.53 83.8492 465 82.3292 463C79.8992 459.84 81.0192 458 78.3292 450C77.5797 447.378 76.2074 444.977 74.3292 443C73.4492 442.12 71.7792 440.66 71.3292 441Z" fill="url(#paint31_linear_216_1260)"/>
<path opacity="0.47" d="M77.3301 534C85.8412 537.315 93.9039 541.682 101.33 547C104.515 547.872 107.549 549.22 110.33 551C112.9 552.707 115.251 554.722 117.33 557C120.917 560.781 124.258 564.79 127.33 569C129.13 571.31 131.86 574.54 137.33 581C149.87 595.81 158.79 603.49 158.33 604C157.65 604.76 137.33 587.54 134.33 585C124.46 576.63 122.72 574.76 113.33 567C103.94 559.24 102.7 558.67 97.3301 554C90.2109 547.802 83.5283 541.119 77.3301 534Z" fill="url(#paint32_linear_216_1260)"/>
<path opacity="0.47" d="M114.33 481C117.271 482.606 119.965 484.627 122.33 487C125.33 490 125.46 491.28 130.33 498C135.08 504.54 136.01 504.78 137.33 508C139.07 512.21 138.48 514.27 139.33 518C140.22 521.91 142.59 527.26 149.33 533C143.243 527.997 138.154 521.89 134.33 515C132.03 510.81 131.33 508.37 129.33 504C125.452 495.658 120.4 487.913 114.33 481Z" fill="url(#paint33_linear_216_1260)"/>
<path opacity="0.47" d="M129.33 470C131.05 472 133.55 475.05 136.33 479C138.77 482.47 138.59 482.59 140.33 485C143.8 489.77 146.01 491.31 151.33 497C151.33 497 154.53 500.41 158.33 505C163.229 510.927 167.58 517.287 171.33 524C166.85 520.4 160.51 515 153.33 508C148.02 502.78 144.74 499.56 141.33 495C135.798 487.492 131.728 479.012 129.33 470Z" fill="url(#paint34_linear_216_1260)"/>
<path opacity="0.47" d="M49.3301 491C48.3301 491.43 49.3301 495 49.3301 498C49.4501 505.86 43.3301 511.66 40.3301 515C35.5901 520.28 29.6701 529.38 25.3301 546C26.9501 544.16 29.3901 541.4 32.3301 538C35.8801 533.91 37.6601 531.87 38.3301 531C42.4201 525.78 41.9001 523.6 46.3301 514C51.4901 502.83 55.1201 499.43 53.3301 495C52.4001 492.69 50.2201 490.63 49.3301 491Z" fill="url(#paint35_linear_216_1260)"/>
<path opacity="0.47" d="M33.3301 221C33.1601 222.62 32.8601 225.06 32.3301 228C31.5901 232.2 30.8701 234.75 30.3301 237C28.7001 243.92 29.3301 246.07 28.3301 252C27.4063 257.538 25.7238 262.922 23.3301 268C25.8021 264.611 27.8193 260.913 29.3301 257C30.8179 253.138 31.8255 249.108 32.3301 245C33.0401 239 31.9801 238.11 33.3301 234C34.3301 231.13 35.3901 229.74 35.3301 227C35.2443 224.851 34.5508 222.771 33.3301 221Z" fill="url(#paint36_linear_216_1260)"/>
<path d="M431.33 611C447.77 604.23 472.58 594.44 503.33 584C545.73 569.61 558.57 567.87 587.33 558C626.77 544.47 633.7 537.08 697.33 507C759.42 477.65 790.47 463 817.33 456C862.95 444.16 897.42 445.67 961.33 449C1022.26 452.222 1082.81 460.585 1142.33 474L1136.33 616L466.33 643L431.33 611Z" fill="url(#paint37_linear_216_1260)"/>
<path d="M772.33 472C769.39 473.29 768.33 473.91 766.04 474.81C758.125 477.821 749.787 479.572 741.33 480C729.81 481.11 729.22 485.76 702.33 499C685.33 507.37 687.28 504.66 670.33 513C658.39 518.88 646.1 524.93 631.33 535C618.33 543.86 615.28 547.7 605.33 551C596.84 553.82 595.59 552.11 581.33 555C571.089 557.129 561.052 560.141 551.33 564C536.72 569.81 535.51 572.62 521.33 578C517.24 579.55 516.19 579.75 497.33 585C465.54 593.84 458.79 596 450.33 600C443.713 603.153 437.36 606.832 431.33 611C449.07 612.64 470.33 613.93 494.33 614C520.05 614.05 545.754 612.715 571.33 610C599.66 607 619.74 603.19 636.33 600C656.55 596.11 699.8 587.79 699.33 581C698.99 576 675.66 576.86 674.33 570C673.14 563.82 691.58 557 725.33 541C741.65 533.25 785.01 512.66 783.33 508C782.28 505.06 763.63 509.38 763.33 508C762.75 505.29 834.84 489.95 848.33 466C850.55 461.759 853.613 458.016 857.33 455C867.15 447.2 878.4 448 878.33 447C878.25 445.76 860.05 443.18 837.33 448C828.39 449.9 818.71 453.6 799.33 461C786.16 466 776.35 470.24 772.33 472Z" fill="url(#paint38_linear_216_1260)"/>
<path d="M942.331 446C925.331 446.22 911.801 440.62 898.331 447C895.751 448.23 894.041 449.39 883.661 454.72C868.381 462.57 865.201 463.57 865.331 465C865.921 471.25 927.401 466.17 929.331 476C930.931 484.12 890.911 497.66 892.331 502C893.841 506.6 939.181 491.89 943.331 501C946.081 507 931.081 519.3 925.331 524C918.131 529.89 899.901 543.42 855.331 555C837.711 559.58 837.281 558.31 815.331 564C802.971 567.21 765.671 576.88 766.331 581C767.331 587.09 850.751 577.49 851.331 582C851.711 584.92 816.971 590.37 817.331 594C817.941 600 914.461 592.8 915.331 600C915.891 604.65 875.991 610.78 876.331 615C876.841 621.15 962.571 620 1101.33 614C1108 566 1114.66 518 1121.33 470C1097.4 469.706 1073.58 466.686 1050.33 461C1027.17 455.27 1022.18 451.1 1000.33 448C982.521 445.47 967.671 445.67 942.331 446Z" fill="url(#paint39_linear_216_1260)"/>
<path d="M748.33 546C780.26 539.83 778.54 536.14 795.33 535C814.53 533.7 831.39 537.52 831.33 539C831.27 540.48 817.65 537.71 799.33 542C770.05 548.86 760.55 565.93 743.33 561C737.39 559.3 730.91 555.08 731.33 552C731.75 548.92 739.17 547.77 748.33 546Z" fill="url(#paint40_linear_216_1260)"/>
<path d="M807.33 507C807.41 504.37 822.27 502.53 830.33 502C840.08 501.36 840.64 502.19 850.33 502C864.49 501.73 872.33 497.87 873.33 500C874.13 501.7 869.82 505.63 866.33 508C864.15 509.48 854.42 515.69 830.33 513C822.72 512.15 807.25 509.7 807.33 507Z" fill="url(#paint41_linear_216_1260)"/>
<path opacity="0.58" d="M782.33 510C769.254 518.976 755.154 526.361 740.33 532C725.33 537.66 716.65 541.44 699.33 549C693.501 551.465 688.1 554.84 683.33 559C679.955 561.976 676.935 565.331 674.33 569C679.58 566.08 687.86 561.68 698.33 557C710.89 551.39 714.33 550.87 734.33 543C759.33 533.16 767.19 528.79 774.33 521C777.404 517.648 780.088 513.957 782.33 510Z" fill="url(#paint42_linear_216_1260)"/>
<path opacity="0.58" d="M695.33 578C693.99 579 691.93 580.43 689.33 582C671.95 592.47 655.01 593.45 648.33 594C633.33 595.24 611.24 599.19 576.33 609C599.526 605.449 622.891 603.113 646.33 602C646.94 602 692.87 599.84 698.33 589C699.07 587.54 700.9 583.92 699.33 581C698.426 579.528 696.996 578.456 695.33 578Z" fill="url(#paint43_linear_216_1260)"/>
<path opacity="0.58" d="M739.33 559C745.766 558.823 752.153 557.815 758.33 556C768.53 553 770.67 550 782.33 546C789.493 543.657 796.858 541.983 804.33 541C812.602 539.708 820.958 539.039 829.33 539C820.782 539.965 812.385 541.98 804.33 545C790.39 550.26 787.39 554.92 771.33 560C762.99 562.64 755.55 564 747.33 562C744.553 561.324 741.867 560.317 739.33 559Z" fill="url(#paint44_linear_216_1260)"/>
<path opacity="0.58" d="M875.33 447C869.7 448.095 864.292 450.123 859.33 453C851.73 457.45 848.59 462 843.33 467C837.61 472.39 834.28 473.6 816.33 483C808.33 487.21 796.33 493.6 781.33 502C794.755 499.064 807.829 494.706 820.33 489C830.97 484.13 836.41 481.58 842.33 476C849.14 469.59 850.62 464.9 858.33 458C863.401 453.486 869.134 449.776 875.33 447Z" fill="url(#paint45_linear_216_1260)"/>
<path opacity="0.58" d="M816.33 511C822.939 512.078 829.647 512.413 836.33 512C848.892 511.187 861.149 507.782 872.33 502C870.816 504.999 868.785 507.707 866.33 510C862.544 513.231 858.112 515.618 853.33 517C837.64 521.59 818.33 512 816.33 511Z" fill="url(#paint46_linear_216_1260)"/>
<path opacity="0.58" d="M892.329 502C892.189 500.88 905.399 498.13 915.329 497C932.099 495.09 949.329 496.68 949.329 498C949.369 500.4 892.629 504.3 892.329 502Z" fill="url(#paint47_linear_216_1260)"/>
<path opacity="0.58" d="M768.33 582C778.99 580.89 791.62 579.62 808.33 578C817.19 577.14 825.02 576.43 835.33 578C840.777 578.83 846.134 580.169 851.33 582C839.33 583.16 826.33 583.92 812.33 584C797.639 584.082 782.953 583.414 768.33 582Z" fill="url(#paint48_linear_216_1260)"/>
<path opacity="0.58" d="M822.33 596C834.59 595.68 844.54 594.77 851.33 594C869.67 591.92 877.19 589.51 889.33 591C897.338 592.014 905.115 594.381 912.33 598C905.33 598.89 898 599.59 890.33 600C867.585 601.214 844.776 599.872 822.33 596Z" fill="url(#paint49_linear_216_1260)"/>
<path opacity="0.54" d="M450.33 600C457.33 597.6 467.69 594.08 480.33 590C511.2 580 522.21 577.52 543.33 571C579.48 559.84 598.46 553.89 622.33 542C626.2 540.08 626.16 540 633.4 535.64C636.22 533.94 657.24 520.24 675.33 511C690.8 503.11 690.11 505.53 706.33 497C719.9 489.87 721.16 487.77 730.33 484C743.61 478.55 748.33 480.84 763.33 476C778.94 471 780.46 468.53 802.33 460C820.58 452.88 830.49 449.08 844.33 447C854.258 445.512 864.325 445.176 874.33 446C855.943 449.926 837.888 455.275 820.33 462C778.91 477.87 770.4 489.91 719.33 514C684.67 530.35 682.68 527.59 650.33 544C614.95 562 602.77 572.63 585.33 582C558.73 596.29 516.65 609.25 450.33 600Z" fill="url(#paint50_linear_216_1260)"/>
<path d="M806.33 535C799.647 534.555 792.935 534.891 786.33 536C772.51 538.35 772.28 542 758.33 544C753.65 544.67 747.63 545.13 739.33 548C737.15 548.75 731.11 550.84 731.33 552C731.61 553.43 741.33 552.89 748.33 552C759.17 550.62 766.25 548 778.33 544C784.64 541.89 794.24 538.74 806.33 535Z" fill="url(#paint51_linear_216_1260)"/>
<path d="M763.329 508C754.729 512.76 751.969 515.08 752.329 516C753.439 518.79 783.719 510.17 783.329 508C783.239 507.49 781.269 507.32 777.329 507C774.999 506.827 772.66 506.827 770.329 507C767.976 507.169 765.637 507.503 763.329 508Z" fill="url(#paint52_linear_216_1260)"/>
<path d="M810.33 509C811.959 508.243 813.628 507.575 815.33 507C827.16 503 835.87 505.12 845.33 505C853.572 504.843 861.711 503.147 869.33 500C862.389 501.18 855.37 501.849 848.33 502C843.95 502.09 842.52 501.9 832.33 502C826.275 502.011 820.24 502.682 814.33 504C808.14 505.41 807.33 506.41 807.33 507C807.33 507.84 808.94 508.53 810.33 509Z" fill="url(#paint53_linear_216_1260)"/>
<path d="M830.33 561C821.2 562.84 813.42 564.58 807.33 566C795.18 568.84 785.92 571.33 775.33 576C772.33 577.33 766.04 580.1 766.33 581C766.74 582.25 779.46 579.17 788.33 577C793.22 575.81 835.99 565.36 835.33 562C835.24 561.54 834.3 561 830.33 561Z" fill="url(#paint54_linear_216_1260)"/>
<path d="M1125.33 -8C1115.53 13.032 1103.81 33.1168 1090.33 52C1057.25 98.34 1021.73 125.78 1024.33 129C1025.38 130.3 1032.55 127.57 1061.33 108C1053.13 122.187 1049.8 129.853 1051.33 131C1053.61 132.7 1066.61 120.033 1090.33 93C1083.42 107.917 1075.4 122.292 1066.33 136C1033.25 186 994.72 214 996.33 216C997.07 216.89 1005.61 211.94 1041.33 185C1023.64 208.14 1015.64 220.473 1017.33 222C1019.67 224.1 1040.34 205.767 1079.33 167C1064.64 189.225 1048.25 210.287 1030.33 230C983.63 281.38 937.1 311.79 939.33 315C940.12 316.13 946.92 313.81 975.33 297C924.73 344.553 900.73 369.887 903.33 373C905.537 375.667 926.87 362.333 967.33 333C954.737 348.44 949.07 356.773 950.33 358C952.23 359.853 969.897 345.52 1003.33 315C994.21 327.09 980.02 345.16 961.33 366C921.53 410.4 888.23 437.36 890.33 440C891.2 441.09 898.17 438.11 927.33 418C918.823 430.973 915.49 438.307 917.33 440C919.87 442.333 932.203 434 954.33 415C936.333 440.365 916.971 464.735 896.33 488C868.28 519.65 847.94 538 850.33 541C852.07 543.22 865.87 537.44 921.33 500C856.397 543.22 825.73 568.22 829.33 575C831.61 579.287 847.61 576.287 877.33 566C865.17 578 862.1 583.25 863.33 585C866.46 589.44 897.85 572.1 898.33 573C899.21 574.64 790.08 623.06 794.33 640C799.33 660 962.16 637 1130.33 608C1128.67 402.667 1127 197.333 1125.33 -8Z" fill="url(#paint55_linear_216_1260)"/>
<path d="M1118.33 9C1105.82 21.9243 1094.13 35.6176 1083.33 50C1068.97 69.18 1067.74 74.31 1052.33 93C1043.08 104.23 1036.05 111.44 1037.33 113C1038.9 114.91 1051.76 107 1062.33 100C1062.51 103.65 1063.17 105.65 1064.33 106C1066.54 106.667 1070.54 101.333 1076.33 90C1081.12 87.6305 1085.1 83.8973 1087.77 79.2705C1090.44 74.6437 1091.68 69.3304 1091.33 64C1096.33 60.6 1109.24 50.84 1115.33 33C1117.95 25.2861 1118.97 17.1207 1118.33 9Z" fill="url(#paint56_linear_216_1260)"/>
<path d="M1059.33 112C1058.45 112.25 1056.99 112.92 1053.33 120C1050.67 125.15 1049.33 127.75 1050.33 129C1051.33 130.25 1054.4 130.31 1056.33 129C1059 127.2 1057.42 124.19 1060.33 120C1062.91 116.3 1065.69 115.56 1065.33 114C1064.97 112.44 1061.82 111.29 1059.33 112Z" fill="url(#paint57_linear_216_1260)"/>
<path d="M1091.33 93C1087.15 93 1083.66 101 1079.33 111C1076.06 118.55 1076.81 119.08 1074.33 123C1070.53 129 1067.42 129.91 1062.33 136C1058.27 140.87 1058.02 143 1054.33 149C1049.95 156.15 1043.08 163.1 1029.33 177C1024.15 182.24 1020.9 185.33 1016.33 191C1015.43 192.13 1006.06 203.75 1007.33 205C1007.98 205.63 1011.55 203.83 1025.33 192C1039.79 178.58 1044.58 175.3 1045.33 176C1046.33 176.9 1040.43 184.19 1041.33 185C1042.23 185.81 1050.78 178.24 1060.33 169C1062.78 168.876 1065.18 168.192 1067.33 167C1074.82 162.75 1073.5 154.68 1079.33 144C1085.52 132.68 1090.66 135.05 1096.33 123C1101.33 112.45 1099.74 105.58 1099.33 104C1098.25 99.78 1095.15 93 1091.33 93Z" fill="url(#paint58_linear_216_1260)"/>
<path d="M1033.33 196C1030.91 196.95 1031.14 199.1 1028.33 203C1024.88 207.8 1022.61 207.2 1019.33 212C1017.33 214.94 1015.4 219.25 1016.33 220C1017.07 220.59 1019.21 218.7 1030.33 209C1038.64 201.75 1040.92 199.78 1040.33 198C1039.74 196.22 1035.93 195 1033.33 196Z" fill="url(#paint59_linear_216_1260)"/>
<path d="M1077.33 169C1073.8 169.39 1073.71 175.19 1068.33 183C1064.44 188.65 1062.45 188.56 1055.33 196C1049.03 202.59 1049.96 203.32 1043.33 211C1032.79 223.23 1027.47 224.84 1020.33 236C1019.33 237.59 1013.64 246.48 1015.33 248C1017.94 250.33 1035.78 233.42 1037.33 235C1038.62 236.31 1026.98 248.55 1028.33 250C1029.08 250.8 1033.47 248 1049.33 236C1069.4 220.79 1075.49 215.31 1074.33 213C1073.17 210.69 1066.33 213.28 1065.33 211C1064.03 208.13 1074.56 203.43 1081.33 191C1083.48 187.06 1086.78 180.79 1084.33 175C1083.11 172.11 1080.18 168.69 1077.33 169Z" fill="url(#paint60_linear_216_1260)"/>
<path d="M993.33 267C988.642 268.119 984.223 270.159 980.33 273C975.86 276.37 975.86 278.22 971.33 283C965.26 289.42 962.62 288.89 955.33 295C948.04 301.11 941.23 309.66 942.33 311C943.11 311.94 948.22 309.95 968.33 296C972.28 294.64 976.42 293.6 977.33 295C978.82 297.27 970.59 304.12 971.33 305C972.47 306.34 993.5 292.92 991.33 287C990.73 285.36 988.8 285.56 988.33 284C986.69 278.53 1008.49 269.05 1007.33 266C1006.63 264.15 997.89 265.76 993.33 267Z" fill="url(#paint61_linear_216_1260)"/>
<path d="M981.33 313C978.19 313.88 977.65 316.39 970.33 327C967.68 330.85 966.33 332.77 965.33 334C959.62 340.84 956.03 341.7 952.33 348C951.63 349.2 948.75 354.3 950.33 356C951.16 356.88 952.47 356.09 954.33 357C957.25 358.43 957.2 361.93 958.33 362C960.22 362.12 959.94 352.39 965.33 344C968.33 339.39 969.15 341.15 980.33 330C987.28 323.08 986.51 323 989.33 321C991.08 319.76 992.33 319.11 992.33 318C992.39 315.47 986.15 311.66 981.33 313Z" fill="url(#paint62_linear_216_1260)"/>
<path d="M950.329 321C948.169 321.38 947.849 322.95 942.329 328C940.444 329.8 938.44 331.471 936.329 333C932.049 336 930.719 335.89 928.329 338C925.419 340.59 925.469 342.55 923.329 346C917.489 355.45 908.609 354.54 905.329 363C904.608 364.916 904.268 366.954 904.329 369C912.589 367.8 916.899 364.73 919.329 362C921.249 359.85 922.209 357.67 925.329 356C928.979 354.05 931.069 355.2 934.329 354C938.809 352.35 939.329 348.55 943.329 343C951.119 332.21 959.859 331.74 959.329 327C958.999 323.53 953.889 320.37 950.329 321Z" fill="url(#paint63_linear_216_1260)"/>
<path d="M1062.33 278C1057.06 282.53 1055.61 286.44 1049.33 299C1042.4 312.88 1038.93 319.83 1035.33 326C1028.71 337.38 1026.33 339.46 1026.33 345C1026.33 352.29 1030.51 354.67 1029.33 362C1028.26 368.64 1024.4 369.47 1024.33 375C1024.25 382.25 1030.78 389.81 1034.33 389C1039.09 387.92 1035.16 372.63 1045.33 364C1049.04 360.86 1050.43 362.15 1053.33 359C1058.99 352.86 1055.72 345.79 1058.33 335C1060.24 327.15 1062.33 329.54 1069.33 315C1073.82 305.51 1076.86 295.396 1078.33 285C1079.81 274.6 1078.39 272.72 1077.33 272C1073.8 269.59 1066.22 274.66 1062.33 278Z" fill="url(#paint64_linear_216_1260)"/>
<path d="M973.33 362C968.33 366.52 968.26 369 961.86 377.28C958.445 381.89 954.583 386.151 950.33 390C938.77 400.26 936.69 399 934.33 404C932.95 406.94 932.88 409 930.33 413C928.16 416.38 926.62 417.32 924.33 420C919.33 425.81 915.92 433.84 917.33 435C919.08 436.44 929.13 428 934.33 423C937.15 420.29 940.04 417.14 945.33 414C948.33 412.2 948.41 412.64 951.33 411C959.72 406.28 964.69 399.62 967.33 396C970.27 392 969.72 391.76 972.33 388C980.98 375.55 992.77 369.7 992.33 369C991.89 368.3 980.27 376.1 978.33 374C976.03 371.5 989.52 357.35 987.33 355C986 353.53 978.79 357.08 973.33 362Z" fill="url(#paint65_linear_216_1260)"/>
<path d="M945.329 383C943.719 381.5 935.969 386.44 930.329 392C925.919 396.35 927.069 396.87 923.329 400C917.859 404.59 914.329 404.36 910.329 409C908.439 411.19 908.139 412.49 906.329 416C899.949 428.42 892.459 434 893.329 435C894.569 436.37 909.329 424.82 910.329 424C913.157 421.858 915.83 419.519 918.329 417C923.739 411.38 923.009 409.93 927.329 405C934.549 396.77 940.439 396.43 944.329 388C944.999 386.59 946.249 383.85 945.329 383Z" fill="url(#paint66_linear_216_1260)"/>
<path d="M984.33 404C976.62 413.12 977.13 417.1 971.33 425C965.33 433.16 963.04 431.33 955.33 441C950.65 446.88 950.53 448.77 945.33 457C934.33 474.46 925.91 480.07 927.33 482C929.2 484.54 946.43 478.36 959.33 466C965.64 460 965.87 457.27 972.33 453C982.72 446.15 988.45 448.9 993.33 443C998.21 437.1 993.91 432.21 997.33 420C1001.39 405.52 1011.98 396.54 1011.33 396C1010.68 395.46 997.85 411.07 994.33 409C991.85 407.54 995.76 398.24 993.33 397C991.23 395.92 986.16 401.84 984.33 404Z" fill="url(#paint67_linear_216_1260)"/>
<path d="M979.33 471C972.04 475.11 973.47 478.36 965.33 484C954.14 491.76 944.58 490.35 943.33 496C943.078 497.333 943.228 498.711 943.762 499.958C944.297 501.205 945.191 502.264 946.33 503C950.26 505.11 954.91 499.72 967.33 493C977.97 487.25 979.65 488.46 988.33 483C991.81 480.82 1004.73 472.69 1003.33 469C1002.09 465.72 989.27 465.41 979.33 471Z" fill="url(#paint68_linear_216_1260)"/>
<path d="M913.331 467C907.661 470.09 902.191 474.06 891.331 485C883.331 493.08 879.191 497.26 874.331 504C869.631 510.52 870.251 511.08 866.331 516C857.331 527.34 848.491 531.35 849.331 533C850.041 534.39 857.071 533.07 863.331 530C873.331 525.12 873.991 519.4 884.331 515C889.221 512.92 888.891 514.27 894.331 512C899.031 510 909.651 505.6 912.331 497C914.241 490.9 910.091 489.34 911.331 482C913.141 471.29 923.501 465.57 922.331 464C921.351 462.68 913.921 466.68 913.331 467Z" fill="url(#paint69_linear_216_1260)"/>
<path d="M922.33 514C916.66 518.45 914.83 522 911.33 526C905.28 533 904.11 530.06 894.33 539C887.02 545.68 886.71 548.19 880.33 552C876.4 554.35 874.8 554.42 872.33 557C869.42 560 869.25 562.45 866.33 570C862.63 579.58 860.4 582.19 861.33 583C862.88 584.34 871.26 579.09 877.33 572C881.75 566.85 882.57 563.49 887.33 561C891.23 559 893.69 559.64 897.33 559C907.95 557.14 909.33 547.51 926.33 531C933.04 524.49 940.04 519 939.33 518C938.62 517 929.28 523.14 927.33 521C925.38 518.86 931.84 511.37 930.33 510C929 508.8 923 513.52 922.33 514Z" fill="url(#paint70_linear_216_1260)"/>
<path d="M1028.33 480C1022.33 486.52 1023.33 487.95 1014.33 499C1006.33 508.86 1003.74 509.93 992.33 522C973.66 541.76 976.51 543.16 966.33 551C955.05 559.69 950.67 558.65 941.33 568C933.33 576 925.99 587.39 928.33 590C930.67 592.61 939.97 583.86 962.33 576C977.41 570.7 980.33 572.15 987.33 567C997.33 559.63 995.56 553.6 1005.33 545C1015.26 536.27 1019.72 540.19 1033.33 532C1049.33 522.37 1063.33 504.84 1059.33 496C1057.03 490.87 1050.25 492.12 1048.33 487C1044.62 477.1 1066.33 462.83 1064.33 460C1062.61 457.53 1043 464 1028.33 480Z" fill="url(#paint71_linear_216_1260)"/>
<path opacity="0.56" d="M990.33 370C984.666 372.662 979.571 376.397 975.33 381C971.33 385.4 971.14 387.33 966.33 393C964.25 395.46 961.9 397.91 952.33 406C940.27 416.2 939.55 416.07 935.33 420C929.079 425.878 923.692 432.611 919.33 440C928.51 434.13 935.93 428.93 941.33 425C948.96 419.45 952.88 416.21 954.33 415C961.49 409 965.07 406 968.33 402C974.27 394.66 973.88 391.33 980.33 382C983.301 377.712 986.648 373.696 990.33 370Z" fill="url(#paint72_linear_216_1260)"/>
<path opacity="0.56" d="M927.33 482C931.582 481.019 935.639 479.328 939.33 477C942.69 474.86 943.99 473.28 951.33 466C958.67 458.72 962.33 455.12 964.33 454C970.22 450.71 972.33 452.07 979.33 448C982.727 446.228 985.776 443.856 988.33 441C993.72 434.56 992.9 427.79 994.33 421C995.69 414.54 999.6 405.63 1011.33 396C1009.95 399 1008.18 403.1 1006.33 408C1003.05 416.73 1001.41 421.09 1000.33 427C998.78 435.55 1000.06 437.87 997.33 442C996.13 443.82 994.95 444.78 988.33 449C975.69 457.06 972.9 458.07 968.33 462C963.04 466.56 962.96 468.49 959.33 472C954.25 476.91 945.11 482.11 927.33 482Z" fill="url(#paint73_linear_216_1260)"/>
<path opacity="0.56" d="M943.33 503C945.06 502.21 947.9 500.86 951.33 499C958.22 495.27 959.82 493.63 965.33 491C969.92 488.81 969.82 489.46 975.33 487C979.847 485.026 984.195 482.684 988.33 480C993.875 476.338 998.917 471.968 1003.33 467C1003.53 470.129 1002.83 473.249 1001.33 476C998.96 480.15 995.28 481.7 988.33 485C978.08 489.87 972.95 492.3 970.33 494C961.27 499.88 959.72 504.25 953.33 505C949.873 505.316 946.399 504.622 943.33 503Z" fill="url(#paint74_linear_216_1260)"/>
<path opacity="0.56" d="M929.33 510C926.773 513.171 924.434 516.512 922.33 520C921.12 522 917.76 527.57 918.33 528C918.75 528.3 921.33 526.06 931.33 514L929.33 510Z" fill="url(#paint75_linear_216_1260)"/>
<path opacity="0.56" d="M939.33 518L932.33 525L923.33 534C918.52 538.75 914.17 543 908.33 548C903.13 552.44 900.47 554.68 897.33 556C891.33 558.53 889.73 556.65 885.33 559C880.33 561.67 879.82 565.47 874.33 573C871.117 577.394 867.428 581.418 863.33 585C869.143 583.425 874.582 580.705 879.33 577C884.25 573.11 884.66 571 890.33 567C895.33 563.47 897.18 563.68 903.33 560C907.57 557.334 911.584 554.324 915.33 551C928.57 539.36 937.33 522.07 939.33 518Z" fill="url(#paint76_linear_216_1260)"/>
<path opacity="0.56" d="M1064.33 460C1063.99 459.71 1059.33 466.37 1051.33 474C1045.46 479.6 1041.89 481.82 1042.33 485C1042.77 488.18 1046.55 488.29 1049.33 493C1051.17 496.353 1051.87 500.213 1051.33 504C1050.48 510.88 1045.48 515.19 1037.33 522C1031.88 526.56 1029.14 527.89 1020.33 534C1013.81 538.53 1008.65 542.43 1005.33 545C1009.5 543.91 1015.33 542.28 1022.33 540C1032.62 536.63 1037.76 534.94 1042.33 532C1048.93 527.68 1054.42 521.854 1058.33 515C1061.87 508.79 1065.59 502.48 1063.33 497C1060.84 491 1053.74 492.27 1051.33 487C1046.93 477.37 1064.94 460.5 1064.33 460Z" fill="url(#paint77_linear_216_1260)"/>
<path opacity="0.56" d="M998.33 553C994.859 557.205 990.82 560.907 986.33 564C984.41 565.32 980.42 567.9 964.33 574C951.64 578.82 949.58 578.94 943.33 582C937.668 584.776 932.307 588.127 927.33 592C931.28 591 937.22 589.41 944.33 587C954.75 583.47 955.92 582.18 963.33 580C976.86 576 979.57 578.36 985.33 575C989.79 572.4 995.4 566.78 998.33 553Z" fill="url(#paint78_linear_216_1260)"/>
<path opacity="0.56" d="M1077.33 270C1078.34 277.059 1077.66 284.258 1075.33 291C1072.41 299.19 1069.26 299.72 1063.33 311C1059.33 318.64 1055.48 325.94 1054.33 336C1053.47 343.54 1054.83 346.37 1052.33 352C1049.63 358.1 1045.83 359.71 1042.33 364C1038.51 368.68 1034.96 376.64 1036.33 391C1035.94 379.49 1039.27 373.41 1042.33 370C1047.72 364 1053.33 365 1058.33 358C1061.67 353.28 1060.87 350.34 1063.33 342C1066.46 331.4 1070.92 325.4 1073.33 321C1078 312.58 1081.81 297.8 1077.33 270Z" fill="url(#paint79_linear_216_1260)"/>
<path opacity="0.56" d="M922.33 464C911.81 470.85 907.93 477.85 906.33 483C904.22 489.81 906.04 493.64 902.33 499C899.48 503.13 897.02 502.86 887.33 509C885.09 510.42 880.84 513.62 872.33 520C867.94 523.3 862.14 527.7 855.33 533C861.584 531.861 867.644 529.841 873.33 527C880.65 523.32 880.65 521.56 888.33 518C896.67 514.14 899.27 515 904.33 511C907.727 508.323 910.464 504.902 912.33 501C915.88 493.45 913.46 489.1 915.33 480C916.559 474.249 918.941 468.806 922.33 464Z" fill="url(#paint80_linear_216_1260)"/>
<path opacity="0.56" d="M1011.33 263C1000.71 267.158 991.63 274.492 985.33 284C995.833 279.641 1004.86 272.351 1011.33 263Z" fill="url(#paint81_linear_216_1260)"/>
<path opacity="0.56" d="M960.33 324C956.309 326.921 952.62 330.275 949.33 334C945.93 337.88 945.03 339.84 941.33 343C939.92 344.21 939.03 344.8 932.33 349C922.22 355.35 922.13 355.34 921.33 356C918.49 358.37 914.84 362.48 912.33 370C916.57 366.31 923 361 931.33 355C936.66 351.19 938.54 350.15 941.33 348C947 343.67 954.14 336.46 960.33 324Z" fill="url(#paint82_linear_216_1260)"/>
<path opacity="0.56" d="M994.329 312C992.979 313.69 990.939 316.15 988.329 319C983.329 324.48 980.959 326.21 977.329 330C971.209 336.38 965.589 344.3 966.329 345C967.069 345.7 972.839 337.13 985.329 329C987.979 327.28 991.459 325.24 993.329 321C994.522 318.159 994.87 315.034 994.329 312Z" fill="url(#paint83_linear_216_1260)"/>
<path opacity="0.56" d="M1083.33 173C1085.49 182.84 1083.6 188.56 1081.33 192C1077.75 197.45 1072.99 197.59 1064.33 206C1063.07 207.23 1055.02 215.15 1056.33 217C1056.9 217.8 1059.52 217.93 1071.33 212C1076.53 208.952 1080.71 204.427 1083.33 199C1089.18 186.69 1084.16 174.87 1083.33 173Z" fill="url(#paint84_linear_216_1260)"/>
<path opacity="0.56" d="M1074.33 214C1071.47 216.13 1067.33 219.23 1062.33 223C1053.89 229.37 1049.67 232.56 1045.33 236C1040.33 239.94 1033.44 245.63 1025.33 253C1029.99 251.25 1036.59 248.63 1044.33 245C1054.17 240.4 1059.17 238 1063.33 234C1066.47 231 1071.63 224.89 1074.33 214Z" fill="url(#paint85_linear_216_1260)"/>
<path opacity="0.35" d="M973.33 299C971.205 302.474 968.867 305.814 966.33 309C965.54 310 963.17 312.93 955.33 321C950.18 326.3 947.6 329 945.33 331C936.96 338.55 935.57 337.65 930.33 343C926.13 347.29 928.26 346.61 919.33 358C915.679 362.966 911.296 367.349 906.33 371C905.11 371.88 904.06 372.55 903.33 373C902.972 369.541 903.669 366.055 905.33 363C906.91 360.24 909.16 358.4 913.33 355C917.22 351.83 917.86 352 919.33 350C921.24 347.42 920.95 346.06 923.33 343C924.517 341.528 925.858 340.187 927.33 339C929.529 337.153 931.869 335.481 934.33 334C936.33 332.7 938.66 330.8 943.33 327C948.75 322.6 959.72 312.75 973.33 299Z" fill="url(#paint86_linear_216_1260)"/>
<path opacity="0.35" d="M1007.33 254L993.33 267C990.908 267.302 988.547 267.977 986.33 269C982.9 270.721 979.842 273.099 977.33 276C973.19 280.32 973.57 281.51 970.33 284C967.53 286.16 966.4 285.91 962.33 288C957.828 290.265 953.765 293.312 950.33 297C947.43 300.23 948.42 300.41 942.33 309C939.65 312.78 938.05 314.73 938.33 315C938.61 315.27 940.54 313.5 948.33 307C952.22 303.76 952.27 303.76 954.33 302C958.63 298.34 958.86 297.95 961.33 296C964.85 293.23 967.68 291.42 968.33 291C971.26 289.14 971.66 289.15 973.33 288C976.028 286.062 978.392 283.697 980.33 281C984.57 275.82 987.97 275.13 993.33 271C999.157 266.398 1003.93 260.601 1007.33 254Z" fill="url(#paint87_linear_216_1260)"/>
<path opacity="0.35" d="M988.33 283C987.9 283 986.92 283.1 984.33 285C982.021 286.665 979.995 288.691 978.33 291C977.33 292.38 975.86 294.5 976.33 295C976.8 295.5 978.49 294.31 982.33 292C990.33 287.17 992.53 286.28 992.33 285C992.13 283.72 990 283 988.33 283Z" fill="url(#paint88_linear_216_1260)"/>
<path opacity="0.35" d="M978.33 315C975.66 315.23 976.33 320.72 971.33 326C968.72 328.73 967.33 328.47 964.33 332C962.48 334.16 962.72 334.56 960.33 338C956.74 343.19 955.45 343.34 952.33 348C949.93 351.58 947.88 355.69 948.33 356C948.78 356.31 949.98 354.54 953.33 351C953.33 351 957.18 346.93 961.33 343C966.33 338.28 966.5 338.83 970.33 335C971.03 334.3 973.13 331.87 977.33 327C981.53 322.13 982.61 320.82 982.33 319C982 317 980.05 314.85 978.33 315Z" fill="url(#paint89_linear_216_1260)"/>
<path opacity="0.35" d="M1024.33 297C1012.18 307.4 1010.94 307.71 1006.33 312C998.47 319.33 998.33 322 987.33 336C974.95 351.81 965.76 360.42 966.33 361C967.33 362.05 996.87 332.75 999.33 335C1000.78 336.32 991.99 347.75 992.33 348C993.11 348.57 1038.67 288.9 1036.33 287C1035.88 286.63 1034 288.74 1024.33 297Z" fill="url(#paint90_linear_216_1260)"/>
<path opacity="0.35" d="M954.331 374C953.981 373.68 950.421 378.2 943.331 383C937.331 387.07 936.811 385.91 933.331 389C928.001 393.74 928.561 397.05 923.331 400C920.331 401.68 919.591 400.93 916.331 403C913.547 404.834 911.165 407.216 909.331 410C906.331 414.27 907.811 414.52 904.331 420C902.821 422.39 900.221 426 898.621 428.23L897.331 430C892.571 436.57 890.181 439.86 890.331 440C890.851 440.47 902.121 430.78 913.331 417C918.121 411.11 921.901 405.71 922.331 406C923.001 406.44 914.741 419.62 915.331 420C915.741 420.27 919.631 413.9 926.331 406C933.811 397.19 936.551 396.18 945.331 386C950.581 379.92 954.721 374.35 954.331 374Z" fill="url(#paint91_linear_216_1260)"/>
<path opacity="0.35" d="M973.329 362C968.789 362.56 968.329 368.62 962.329 377C957.159 384.27 950.419 389.7 946.329 393C945.559 393.62 942.819 395.81 939.329 399C937.161 400.825 935.154 402.832 933.329 405C929.559 409.95 931.429 411.6 928.329 416C924.519 421.41 920.329 420.86 918.329 426C917.329 428.64 917.029 432.32 918.329 433C920.669 434.22 928.489 426 933.329 418C935.739 414 936.329 411.9 939.329 409C942.639 405.85 944.029 406.39 948.329 403C951.589 400.43 953.549 397.92 957.329 393C960.959 388.28 961.469 387 964.329 383C972.999 371 979.749 367.1 978.329 364C977.619 362.44 975.159 361.77 973.329 362Z" fill="url(#paint92_linear_216_1260)"/>
<path opacity="0.35" d="M952.329 418C949.549 421.76 945.429 427.31 940.329 434C932.899 443.77 929.109 448.74 925.329 453C919.969 458.966 914.295 464.641 908.329 470C898.689 478.94 898.689 477.95 891.329 485C885.229 490.85 878.929 496.9 872.329 506C867.589 512.55 867.759 513.68 863.329 519C855.559 528.34 848.849 532.29 849.329 533C849.809 533.71 860.329 529.27 870.329 521C873.959 518 872.789 518.42 885.329 506C892.649 498.75 894.329 497.35 898.329 493C898.329 493 903.519 487.38 909.329 480C917.139 470.07 932.829 447.84 952.329 418Z" fill="url(#paint93_linear_216_1260)"/>
<path opacity="0.35" d="M985.329 403C983.239 402.56 981.549 408.93 974.329 419C972.649 421.35 973.119 420.47 965.329 430C958.059 438.9 954.329 443.36 952.329 446C948.009 451.71 948.039 452.3 941.329 462C931.409 476.36 926.849 481.57 927.329 482C928.039 482.62 939.059 472.68 949.329 460C959.919 446.93 959.069 444.49 967.329 437C968.389 436 973.859 431.13 980.329 424C984.169 419.78 986.699 416.59 987.329 412C987.849 408.2 987.079 403.37 985.329 403Z" fill="url(#paint94_linear_216_1260)"/>
<path opacity="0.35" d="M906.329 510C901.909 512.7 900.189 514.18 892.329 520C887.489 523.59 883.099 526.72 874.329 533C863.739 540.58 864.759 539.63 857.329 545C844.159 554.52 839.649 558.45 835.329 564C832.839 567.21 828.159 573.85 829.329 575C830.499 576.15 842.489 561.69 846.329 564C848.329 565.2 846.329 569.79 848.329 571C851.179 572.76 858.739 565.22 866.329 558C866.329 558 876.649 548.19 888.329 538C898.329 529.26 906.079 523.57 916.329 512C921.419 506.27 922.949 503.79 922.329 503C920.859 501.12 907.569 509.24 906.329 510Z" fill="url(#paint95_linear_216_1260)"/>
<path opacity="0.35" d="M922.33 520C920.65 519.36 918.09 526 909.33 535C906.71 537.7 906.71 537.35 899.33 544C888.94 553.38 883.74 558.07 884.33 559C885.23 560.4 895.94 555.4 904.33 550C911.59 545.33 918.08 541 921.33 533C923.67 527.24 923.91 520.6 922.33 520Z" fill="url(#paint96_linear_216_1260)"/>
<path opacity="0.35" d="M916.33 566C915.64 565.06 912.19 566.33 889.33 578C876.16 584.72 869.57 588.09 864.33 591C846.9 600.7 829.28 610.51 830.33 613C831.27 615.22 847.26 612 861.33 605C870.7 600.32 869.58 598.76 882.33 592C892.96 586.37 897.15 585.64 904.33 580C910.89 574.85 917.47 567.55 916.33 566Z" fill="url(#paint97_linear_216_1260)"/>
<path opacity="0.35" d="M995.33 467C994.41 465.2 985.67 466.86 979.33 471C977.204 472.51 975.198 474.181 973.33 476C966.92 481.8 967.43 482.58 964.33 485C958.97 489.19 956.56 487.54 946.33 493C943.19 494.68 938.99 496.92 939.33 498C939.75 499.31 946.76 498.53 952.33 497C959.82 494.95 964.8 491.54 972.33 486C988.19 474.35 996.12 468.53 995.33 467Z" fill="url(#paint98_linear_216_1260)"/>
<path opacity="0.35" d="M1058.33 283C1057.22 282.6 1055.08 289.22 1046.33 304C1040.38 314.06 1034.71 322.25 1029.33 335C1027.33 339.88 1026.27 343 1026.33 347C1026.44 354.32 1030.07 356 1029.33 362C1028.59 368 1024.58 368.88 1024.33 375C1024.15 379.67 1026.25 384.9 1028.33 385C1031.8 385.16 1035.14 371 1036.33 366C1039.19 353.9 1037.92 350.53 1040.33 341C1042.59 332.11 1044.73 331 1049.33 320C1056.83 302.13 1060.16 283.66 1058.33 283Z" fill="url(#paint99_linear_216_1260)"/>
<path opacity="0.35" d="M1066.33 91C1066.33 91 1067.33 90.07 1068.33 89C1071.79 85.14 1078.68 72.89 1076.33 71C1073.98 69.11 1062.63 77.12 1056.33 86C1055.17 87.64 1052.84 91.08 1048.4 97.41C1047.32 98.96 1046.02 100.76 1044.33 103C1040.91 107.54 1037.33 112 1037.33 112C1034.86 115.08 1032.59 117.8 1029.33 122C1025.84 126.51 1024.09 128.76 1024.33 129C1024.88 129.54 1037.47 116.24 1038.33 117C1038.75 117.37 1036.11 120.83 1036.33 121C1036.55 121.17 1042.22 114.56 1050.33 105C1056.03 98.29 1057.78 96.29 1060.33 95C1062.51 93.9534 1064.53 92.607 1066.33 91Z" fill="url(#paint100_linear_216_1260)"/>
<path opacity="0.35" d="M1064.33 106C1064.03 105.84 1063.23 107.25 1059.33 112C1055.56 116.6 1055.33 116.45 1054.33 118C1051 123.13 1050.33 129.56 1051.33 130C1052.33 130.44 1055.24 125.52 1057.33 122C1061.82 114.44 1065 106.38 1064.33 106Z" fill="url(#paint101_linear_216_1260)"/>
<path opacity="0.35" d="M1080.33 109C1079.74 108.84 1079.33 119.51 1071.33 128C1066.33 133.27 1062.75 133.1 1059.33 139C1056.78 143.4 1058.42 144.11 1055.33 151C1053.33 155.44 1051.09 158.64 1047.33 164C1046.23 165.57 1043.67 169.22 1041.33 172C1032.6 182.39 1025.9 181.93 1016.33 191C1008.79 198.15 1004.6 206.37 1005.33 207C1006.06 207.63 1012.47 198.38 1026.33 189C1033.51 184.15 1037.33 182.94 1043.33 177C1045.22 175.15 1047.61 172.07 1052.33 166C1059.51 156.77 1063.09 152.15 1066.33 147C1069.87 141.637 1072.89 135.944 1075.33 130C1079.83 118.76 1080.9 109.15 1080.33 109Z" fill="url(#paint102_linear_216_1260)"/>
<path opacity="0.35" d="M1041.33 185C1040.25 184.7 1038.98 188 1034.33 195C1031.88 198.71 1030.02 201.24 1026.33 206C1018.64 215.94 1015.89 218.51 1016.33 219C1017.04 219.79 1024.79 213.82 1029.33 210C1039.04 201.83 1040.69 197.92 1041.33 196C1043 191 1042.67 185.37 1041.33 185Z" fill="url(#paint103_linear_216_1260)"/>
<path opacity="0.35" d="M1056.33 195C1051.33 197.5 1049.62 202 1047.33 206C1043.33 213 1042.23 210.44 1031.33 223C1026.49 228.58 1027.4 228.29 1017.33 241C1009.92 250.37 1006.96 253.64 1007.33 254C1008.04 254.69 1019.84 244.09 1027.33 237C1034.33 230.36 1038.85 225.59 1039.33 226C1040.01 226.58 1031.86 236.6 1032.33 237C1032.8 237.4 1041.09 228.59 1049.33 218C1056 209.44 1065.83 196.81 1063.33 194C1062.09 192.6 1058.17 194.07 1056.33 195Z" fill="url(#paint104_linear_216_1260)"/>
</g>
<defs>
<linearGradient id="paint0_linear_216_1260" x1="-217.53" y1="822.42" x2="291.72" y2="163.2" gradientUnits="userSpaceOnUse">
<stop offset="0.01" stop-color="#080440"/>
<stop offset="0.36" stop-color="#112A3D"/>
<stop offset="0.5" stop-color="#142B3E"/>
<stop offset="0.58" stop-color="#1C303F"/>
<stop offset="0.66" stop-color="#2B3842"/>
<stop offset="0.73" stop-color="#414246"/>
<stop offset="0.79" stop-color="#5C504B"/>
<stop offset="0.85" stop-color="#7E6252"/>
<stop offset="0.91" stop-color="#A67659"/>
<stop offset="0.96" stop-color="#D38D62"/>
<stop offset="0.97" stop-color="#DE9364"/>
</linearGradient>
<linearGradient id="paint1_linear_216_1260" x1="131.06" y1="127.01" x2="-147.72" y2="547.6" gradientUnits="userSpaceOnUse">
<stop stop-color="#FFE788"/>
<stop offset="0.42" stop-color="#C2B8D6"/>
<stop offset="0.99" stop-color="#2D51AD"/>
</linearGradient>
<linearGradient id="paint2_linear_216_1260" x1="178.321" y1="158.34" x2="-100.449" y2="578.93" gradientUnits="userSpaceOnUse">
<stop stop-color="#FFE788"/>
<stop offset="0.42" stop-color="#C2B8D6"/>
<stop offset="0.99" stop-color="#2D51AD"/>
</linearGradient>
<linearGradient id="paint3_linear_216_1260" x1="221.801" y1="187.16" x2="-56.9793" y2="607.74" gradientUnits="userSpaceOnUse">
<stop stop-color="#FFE788"/>
<stop offset="0.42" stop-color="#C2B8D6"/>
<stop offset="0.99" stop-color="#2D51AD"/>
</linearGradient>
<linearGradient id="paint4_linear_216_1260" x1="167.47" y1="151.15" x2="-111.31" y2="571.73" gradientUnits="userSpaceOnUse">
<stop stop-color="#FFE788"/>
<stop offset="0.42" stop-color="#C2B8D6"/>
<stop offset="0.99" stop-color="#2D51AD"/>
</linearGradient>
<linearGradient id="paint5_linear_216_1260" x1="248.33" y1="204.74" x2="-30.4404" y2="625.33" gradientUnits="userSpaceOnUse">
<stop stop-color="#FFE788"/>
<stop offset="0.42" stop-color="#C2B8D6"/>
<stop offset="0.99" stop-color="#2D51AD"/>
</linearGradient>
<linearGradient id="paint6_linear_216_1260" x1="259.69" y1="212.28" x2="-19.0798" y2="632.86" gradientUnits="userSpaceOnUse">
<stop stop-color="#FFE788"/>
<stop offset="0.42" stop-color="#C2B8D6"/>
<stop offset="0.99" stop-color="#2D51AD"/>
</linearGradient>
<linearGradient id="paint7_linear_216_1260" x1="306.36" y1="243.21" x2="27.5895" y2="663.79" gradientUnits="userSpaceOnUse">
<stop stop-color="#FFE788"/>
<stop offset="0.42" stop-color="#C2B8D6"/>
<stop offset="0.99" stop-color="#2D51AD"/>
</linearGradient>
<linearGradient id="paint8_linear_216_1260" x1="312.279" y1="247.13" x2="33.4993" y2="667.72" gradientUnits="userSpaceOnUse">
<stop stop-color="#FFE788"/>
<stop offset="0.42" stop-color="#C2B8D6"/>
<stop offset="0.99" stop-color="#2D51AD"/>
</linearGradient>
<linearGradient id="paint9_linear_216_1260" x1="241.79" y1="200.41" x2="-36.9801" y2="621" gradientUnits="userSpaceOnUse">
<stop stop-color="#FFE788"/>
<stop offset="0.42" stop-color="#C2B8D6"/>
<stop offset="0.99" stop-color="#2D51AD"/>
</linearGradient>
<linearGradient id="paint10_linear_216_1260" x1="327.82" y1="257.43" x2="49.0402" y2="678.02" gradientUnits="userSpaceOnUse">
<stop stop-color="#FFE788"/>
<stop offset="0.42" stop-color="#C2B8D6"/>
<stop offset="0.99" stop-color="#2D51AD"/>
</linearGradient>
<linearGradient id="paint11_linear_216_1260" x1="107.38" y1="111.32" x2="-171.4" y2="531.9" gradientUnits="userSpaceOnUse">
<stop stop-color="#FFE788"/>
<stop offset="0.42" stop-color="#C2B8D6"/>
<stop offset="0.99" stop-color="#2D51AD"/>
</linearGradient>
<linearGradient id="paint12_linear_216_1260" x1="120.76" y1="120.19" x2="-158.01" y2="540.77" gradientUnits="userSpaceOnUse">
<stop stop-color="#FFE788"/>
<stop offset="0.42" stop-color="#C2B8D6"/>
<stop offset="0.99" stop-color="#2D51AD"/>
</linearGradient>
<linearGradient id="paint13_linear_216_1260" x1="-151.87" y1="731.23" x2="162.76" y2="114.28" gradientUnits="userSpaceOnUse">
<stop offset="0.09" stop-color="#061117"/>
<stop offset="1" stop-color="#4C6182" stop-opacity="0"/>
</linearGradient>
<linearGradient id="paint14_linear_216_1260" x1="-177.5" y1="718.16" x2="137.14" y2="101.21" gradientUnits="userSpaceOnUse">
<stop offset="0.09" stop-color="#061117"/>
<stop offset="1" stop-color="#4C6182" stop-opacity="0"/>
</linearGradient>
<linearGradient id="paint15_linear_216_1260" x1="-87.8399" y1="763.88" x2="226.8" y2="146.93" gradientUnits="userSpaceOnUse">
<stop offset="0.09" stop-color="#061117"/>
<stop offset="1" stop-color="#4C6182" stop-opacity="0"/>
</linearGradient>
<linearGradient id="paint16_linear_216_1260" x1="-73.9297" y1="770.98" x2="240.7" y2="154.02" gradientUnits="userSpaceOnUse">
<stop offset="0.09" stop-color="#061117"/>
<stop offset="1" stop-color="#4C6182" stop-opacity="0"/>
</linearGradient>
<linearGradient id="paint17_linear_216_1260" x1="-101.77" y1="756.78" x2="212.86" y2="139.83" gradientUnits="userSpaceOnUse">
<stop offset="0.09" stop-color="#061117"/>
<stop offset="1" stop-color="#4C6182" stop-opacity="0"/>
</linearGradient>
<linearGradient id="paint18_linear_216_1260" x1="-3.20994" y1="807.04" x2="311.43" y2="190.09" gradientUnits="userSpaceOnUse">
<stop offset="0.09" stop-color="#061117"/>
<stop offset="1" stop-color="#4C6182" stop-opacity="0"/>
</linearGradient>
<linearGradient id="paint19_linear_216_1260" x1="16.1101" y1="816.89" x2="330.74" y2="199.94" gradientUnits="userSpaceOnUse">
<stop offset="0.09" stop-color="#061117"/>
<stop offset="1" stop-color="#4C6182" stop-opacity="0"/>
</linearGradient>
<linearGradient id="paint20_linear_216_1260" x1="-26.8309" y1="795" x2="287.809" y2="178.05" gradientUnits="userSpaceOnUse">
<stop offset="0.09" stop-color="#061117"/>
<stop offset="1" stop-color="#4C6182" stop-opacity="0"/>
</linearGradient>
<linearGradient id="paint21_linear_216_1260" x1="-14.5799" y1="801.24" x2="300.05" y2="184.29" gradientUnits="userSpaceOnUse">
<stop offset="0.09" stop-color="#061117"/>
<stop offset="1" stop-color="#4C6182" stop-opacity="0"/>
</linearGradient>
<linearGradient id="paint22_linear_216_1260" x1="-122.52" y1="746.2" x2="192.12" y2="129.25" gradientUnits="userSpaceOnUse">
<stop offset="0.09" stop-color="#061117"/>
<stop offset="1" stop-color="#4C6182" stop-opacity="0"/>
</linearGradient>
<linearGradient id="paint23_linear_216_1260" x1="-168.17" y1="722.91" x2="146.46" y2="105.96" gradientUnits="userSpaceOnUse">
<stop offset="0.09" stop-color="#061117"/>
<stop offset="1" stop-color="#4C6182" stop-opacity="0"/>
</linearGradient>
<linearGradient id="paint24_linear_216_1260" x1="-208.94" y1="702.13" x2="105.7" y2="85.17" gradientUnits="userSpaceOnUse">
<stop offset="0.09" stop-color="#061117"/>
<stop offset="1" stop-color="#4C6182" stop-opacity="0"/>
</linearGradient>
<linearGradient id="paint25_linear_216_1260" x1="-207.4" y1="702.91" x2="107.24" y2="85.96" gradientUnits="userSpaceOnUse">
<stop offset="0.09" stop-color="#061117"/>
<stop offset="1" stop-color="#4C6182" stop-opacity="0"/>
</linearGradient>
<linearGradient id="paint26_linear_216_1260" x1="255.66" y1="-29.63" x2="-191.31" y2="576.15" gradientUnits="userSpaceOnUse">
<stop offset="0.09" stop-color="#F4F2D9"/>
<stop offset="1" stop-color="#F4EE8C" stop-opacity="0"/>
</linearGradient>
<linearGradient id="paint27_linear_216_1260" x1="302.94" y1="5.25" x2="-144.03" y2="611.03" gradientUnits="userSpaceOnUse">
<stop offset="0.09" stop-color="#F4F2D9"/>
<stop offset="1" stop-color="#F4EE8C" stop-opacity="0"/>
</linearGradient>
<linearGradient id="paint28_linear_216_1260" x1="347.3" y1="37.99" x2="-99.6702" y2="643.76" gradientUnits="userSpaceOnUse">
<stop offset="0.09" stop-color="#F4F2D9"/>
<stop offset="1" stop-color="#F4EE8C" stop-opacity="0"/>
</linearGradient>
<linearGradient id="paint29_linear_216_1260" x1="298.59" y1="2.04" x2="-148.38" y2="607.82" gradientUnits="userSpaceOnUse">
<stop offset="0.09" stop-color="#F4F2D9"/>
<stop offset="1" stop-color="#F4EE8C" stop-opacity="0"/>
</linearGradient>
<linearGradient id="paint30_linear_216_1260" x1="376.6" y1="59.61" x2="-70.37" y2="665.38" gradientUnits="userSpaceOnUse">
<stop offset="0.09" stop-color="#F4F2D9"/>
<stop offset="1" stop-color="#F4EE8C" stop-opacity="0"/>
</linearGradient>
<linearGradient id="paint31_linear_216_1260" x1="388.789" y1="68.6" x2="-58.1708" y2="674.38" gradientUnits="userSpaceOnUse">
<stop offset="0.09" stop-color="#F4F2D9"/>
<stop offset="1" stop-color="#F4EE8C" stop-opacity="0"/>
</linearGradient>
<linearGradient id="paint32_linear_216_1260" x1="452.41" y1="115.54" x2="5.45006" y2="721.32" gradientUnits="userSpaceOnUse">
<stop offset="0.09" stop-color="#F4F2D9"/>
<stop offset="1" stop-color="#F4EE8C" stop-opacity="0"/>
</linearGradient>
<linearGradient id="paint33_linear_216_1260" x1="309.97" y1="163.8" x2="23.8101" y2="715.12" gradientUnits="userSpaceOnUse">
<stop offset="0.09" stop-color="#F4EE8C"/>
<stop offset="1" stop-color="#F4EE8C" stop-opacity="0"/>
</linearGradient>
<linearGradient id="paint34_linear_216_1260" x1="439.06" y1="105.69" x2="-7.90991" y2="711.47" gradientUnits="userSpaceOnUse">
<stop offset="0.09" stop-color="#F4F2D9"/>
<stop offset="1" stop-color="#F4EE8C" stop-opacity="0"/>
</linearGradient>
<linearGradient id="paint35_linear_216_1260" x1="376.76" y1="59.73" x2="-70.1998" y2="665.51" gradientUnits="userSpaceOnUse">
<stop offset="0.09" stop-color="#F4F2D9"/>
<stop offset="1" stop-color="#F4EE8C" stop-opacity="0"/>
</linearGradient>
<linearGradient id="paint36_linear_216_1260" x1="239.43" y1="-41.6" x2="-207.53" y2="564.18" gradientUnits="userSpaceOnUse">
<stop offset="0.09" stop-color="#F4F2D9"/>
<stop offset="1" stop-color="#F4EE8C" stop-opacity="0"/>
</linearGradient>
<linearGradient id="paint37_linear_216_1260" x1="578.12" y1="265.01" x2="1147.73" y2="1022.32" gradientUnits="userSpaceOnUse">
<stop offset="0.05" stop-color="#FFC496"/>
<stop offset="0.33" stop-color="#355E54"/>
<stop offset="0.97" stop-color="#122A42"/>
</linearGradient>
<linearGradient id="paint38_linear_216_1260" x1="499.9" y1="446.23" x2="963.83" y2="693.89" gradientUnits="userSpaceOnUse">
<stop stop-color="#FFE788"/>
<stop offset="0.42" stop-color="#C2B8D6"/>
<stop offset="0.99" stop-color="#2D51AD"/>
</linearGradient>
<linearGradient id="paint39_linear_216_1260" x1="565.341" y1="323.65" x2="1029.27" y2="571.31" gradientUnits="userSpaceOnUse">
<stop stop-color="#FFE788"/>
<stop offset="0.42" stop-color="#C2B8D6"/>
<stop offset="0.99" stop-color="#2D51AD"/>
</linearGradient>
<linearGradient id="paint40_linear_216_1260" x1="520.44" y1="407.75" x2="984.37" y2="655.42" gradientUnits="userSpaceOnUse">
<stop stop-color="#FFE788"/>
<stop offset="0.42" stop-color="#C2B8D6"/>
<stop offset="0.99" stop-color="#2D51AD"/>
</linearGradient>
<linearGradient id="paint41_linear_216_1260" x1="551.5" y1="349.57" x2="1015.43" y2="597.23" gradientUnits="userSpaceOnUse">
<stop stop-color="#FFE788"/>
<stop offset="0.42" stop-color="#C2B8D6"/>
<stop offset="0.99" stop-color="#2D51AD"/>
</linearGradient>
<linearGradient id="paint42_linear_216_1260" x1="876.12" y1="646.46" x2="588.64" y2="438.39" gradientUnits="userSpaceOnUse">
<stop offset="0.09" stop-color="#07131A"/>
<stop offset="1" stop-color="#4C6182" stop-opacity="0"/>
</linearGradient>
<linearGradient id="paint43_linear_216_1260" x1="818.81" y1="725.66" x2="531.32" y2="517.59" gradientUnits="userSpaceOnUse">
<stop offset="0.09" stop-color="#07131A"/>
<stop offset="1" stop-color="#4C6182" stop-opacity="0"/>
</linearGradient>
<linearGradient id="paint44_linear_216_1260" x1="890.86" y1="626.1" x2="603.37" y2="418.03" gradientUnits="userSpaceOnUse">
<stop offset="0.09" stop-color="#07131A"/>
<stop offset="1" stop-color="#4C6182" stop-opacity="0"/>
</linearGradient>
<linearGradient id="paint45_linear_216_1260" x1="941.37" y1="556.31" x2="653.88" y2="348.24" gradientUnits="userSpaceOnUse">
<stop offset="0.09" stop-color="#07131A"/>
<stop offset="1" stop-color="#4C6182" stop-opacity="0"/>
</linearGradient>
<linearGradient id="paint46_linear_216_1260" x1="931.67" y1="569.71" x2="644.19" y2="361.64" gradientUnits="userSpaceOnUse">
<stop offset="0.09" stop-color="#07131A"/>
<stop offset="1" stop-color="#4C6182" stop-opacity="0"/>
</linearGradient>
<linearGradient id="paint47_linear_216_1260" x1="961.059" y1="529.1" x2="673.579" y2="321.03" gradientUnits="userSpaceOnUse">
<stop offset="0.09" stop-color="#205575"/>
<stop offset="1" stop-color="#4C6182" stop-opacity="0"/>
</linearGradient>
<linearGradient id="paint48_linear_216_1260" x1="883.95" y1="635.64" x2="596.47" y2="427.57" gradientUnits="userSpaceOnUse">
<stop offset="0.09" stop-color="#07131A"/>
<stop offset="1" stop-color="#4C6182" stop-opacity="0"/>
</linearGradient>
<linearGradient id="paint49_linear_216_1260" x1="896.59" y1="618.18" x2="609.11" y2="410.11" gradientUnits="userSpaceOnUse">
<stop offset="0.09" stop-color="#07131A"/>
<stop offset="1" stop-color="#4C6182" stop-opacity="0"/>
</linearGradient>
<linearGradient id="paint50_linear_216_1260" x1="405.88" y1="190.04" x2="768.51" y2="660.85" gradientUnits="userSpaceOnUse">
<stop offset="0.1" stop-color="#F7F5E8"/>
<stop offset="1" stop-color="#F4F2D9" stop-opacity="0"/>
</linearGradient>
<linearGradient id="paint51_linear_216_1260" x1="462.8" y1="146.2" x2="825.43" y2="617.01" gradientUnits="userSpaceOnUse">
<stop offset="0.1" stop-color="#F7F5E8"/>
<stop offset="1" stop-color="#F4F2D9" stop-opacity="0"/>
</linearGradient>
<linearGradient id="paint52_linear_216_1260" x1="477.419" y1="134.94" x2="840.049" y2="605.75" gradientUnits="userSpaceOnUse">
<stop offset="0.1" stop-color="#F7F5E8"/>
<stop offset="1" stop-color="#F4F2D9" stop-opacity="0"/>
</linearGradient>
<linearGradient id="paint53_linear_216_1260" x1="525.71" y1="97.74" x2="888.34" y2="568.55" gradientUnits="userSpaceOnUse">
<stop offset="0.1" stop-color="#F7F5E8"/>
<stop offset="1" stop-color="#F4F2D9" stop-opacity="0"/>
</linearGradient>
<linearGradient id="paint54_linear_216_1260" x1="469.38" y1="141.14" x2="832.01" y2="611.94" gradientUnits="userSpaceOnUse">
<stop offset="0.1" stop-color="#F7F5E8"/>
<stop offset="1" stop-color="#F4F2D9" stop-opacity="0"/>
</linearGradient>
<linearGradient id="paint55_linear_216_1260" x1="1310.39" y1="598.07" x2="805.26" y2="192.45" gradientUnits="userSpaceOnUse">
<stop offset="0.01" stop-color="#02061C"/>
<stop offset="0.55" stop-color="#091F33"/>
<stop offset="0.97" stop-color="#DE9D6B"/>
</linearGradient>
<linearGradient id="paint56_linear_216_1260" x1="921.34" y1="-124.87" x2="1409.5" y2="454.95" gradientUnits="userSpaceOnUse">
<stop stop-color="#FFE788"/>
<stop offset="0.42" stop-color="#C2B8D6"/>
<stop offset="0.99" stop-color="#2D51AD"/>
</linearGradient>
<linearGradient id="paint57_linear_216_1260" x1="879.899" y1="-89.98" x2="1368.06" y2="489.84" gradientUnits="userSpaceOnUse">
<stop stop-color="#FFE788"/>
<stop offset="0.42" stop-color="#C2B8D6"/>
<stop offset="0.99" stop-color="#2D51AD"/>
</linearGradient>
<linearGradient id="paint58_linear_216_1260" x1="861.869" y1="-74.8" x2="1350.03" y2="505.02" gradientUnits="userSpaceOnUse">
<stop stop-color="#FFE788"/>
<stop offset="0.42" stop-color="#C2B8D6"/>
<stop offset="0.99" stop-color="#2D51AD"/>
</linearGradient>
<linearGradient id="paint59_linear_216_1260" x1="819.511" y1="-39.14" x2="1307.67" y2="540.679" gradientUnits="userSpaceOnUse">
<stop stop-color="#FFE788"/>
<stop offset="0.42" stop-color="#C2B8D6"/>
<stop offset="0.99" stop-color="#2D51AD"/>
</linearGradient>
<linearGradient id="paint60_linear_216_1260" x1="831.019" y1="-48.83" x2="1319.18" y2="530.99" gradientUnits="userSpaceOnUse">
<stop stop-color="#FFE788"/>
<stop offset="0.42" stop-color="#C2B8D6"/>
<stop offset="0.99" stop-color="#2D51AD"/>
</linearGradient>
<linearGradient id="paint61_linear_216_1260" x1="749" y1="20.23" x2="1237.16" y2="600.05" gradientUnits="userSpaceOnUse">
<stop stop-color="#FFE788"/>
<stop offset="0.42" stop-color="#C2B8D6"/>
<stop offset="0.99" stop-color="#2D51AD"/>
</linearGradient>
<linearGradient id="paint62_linear_216_1260" x1="723.25" y1="41.91" x2="1211.4" y2="621.73" gradientUnits="userSpaceOnUse">
<stop stop-color="#FFE788"/>
<stop offset="0.42" stop-color="#C2B8D6"/>
<stop offset="0.99" stop-color="#2D51AD"/>
</linearGradient>
<linearGradient id="paint63_linear_216_1260" x1="694.809" y1="65.85" x2="1182.97" y2="645.67" gradientUnits="userSpaceOnUse">
<stop stop-color="#FFE788"/>
<stop offset="0.42" stop-color="#C2B8D6"/>
<stop offset="0.99" stop-color="#2D51AD"/>
</linearGradient>
<linearGradient id="paint64_linear_216_1260" x1="774.841" y1="-1.53" x2="1263" y2="578.29" gradientUnits="userSpaceOnUse">
<stop stop-color="#FFE788"/>
<stop offset="0.42" stop-color="#C2B8D6"/>
<stop offset="0.99" stop-color="#2D51AD"/>
</linearGradient>
<linearGradient id="paint65_linear_216_1260" x1="683.34" y1="75.51" x2="1171.5" y2="655.33" gradientUnits="userSpaceOnUse">
<stop stop-color="#FFE788"/>
<stop offset="0.42" stop-color="#C2B8D6"/>
<stop offset="0.99" stop-color="#2D51AD"/>
</linearGradient>
<linearGradient id="paint66_linear_216_1260" x1="657.139" y1="97.57" x2="1145.3" y2="677.39" gradientUnits="userSpaceOnUse">
<stop stop-color="#FFE788"/>
<stop offset="0.42" stop-color="#C2B8D6"/>
<stop offset="0.99" stop-color="#2D51AD"/>
</linearGradient>
<linearGradient id="paint67_linear_216_1260" x1="671.61" y1="85.38" x2="1159.77" y2="665.2" gradientUnits="userSpaceOnUse">
<stop stop-color="#FFE788"/>
<stop offset="0.42" stop-color="#C2B8D6"/>
<stop offset="0.99" stop-color="#2D51AD"/>
</linearGradient>
<linearGradient id="paint68_linear_216_1260" x1="651.58" y1="102.25" x2="1139.74" y2="682.06" gradientUnits="userSpaceOnUse">
<stop stop-color="#FFE788"/>
<stop offset="0.42" stop-color="#C2B8D6"/>
<stop offset="0.99" stop-color="#2D51AD"/>
</linearGradient>
<linearGradient id="paint69_linear_216_1260" x1="593.431" y1="151.21" x2="1081.59" y2="731.02" gradientUnits="userSpaceOnUse">
<stop stop-color="#FFE788"/>
<stop offset="0.42" stop-color="#C2B8D6"/>
<stop offset="0.99" stop-color="#2D51AD"/>
</linearGradient>
<linearGradient id="paint70_linear_216_1260" x1="576.3" y1="165.63" x2="1064.46" y2="745.45" gradientUnits="userSpaceOnUse">
<stop stop-color="#FFE788"/>
<stop offset="0.42" stop-color="#C2B8D6"/>
<stop offset="0.99" stop-color="#2D51AD"/>
</linearGradient>
<linearGradient id="paint71_linear_216_1260" x1="645.05" y1="107.75" x2="1133.2" y2="687.57" gradientUnits="userSpaceOnUse">
<stop stop-color="#FFE788"/>
<stop offset="0.42" stop-color="#C2B8D6"/>
<stop offset="0.99" stop-color="#2D51AD"/>
</linearGradient>
<linearGradient id="paint72_linear_216_1260" x1="1138.75" y1="678.07" x2="751.91" y2="103.7" gradientUnits="userSpaceOnUse">
<stop offset="0.09" stop-color="#205575"/>
<stop offset="1" stop-color="#4C6182" stop-opacity="0"/>
</linearGradient>
<linearGradient id="paint73_linear_216_1260" x1="1132.97" y1="681.96" x2="746.13" y2="107.59" gradientUnits="userSpaceOnUse">
<stop offset="0.09" stop-color="#205575"/>
<stop offset="1" stop-color="#4C6182" stop-opacity="0"/>
</linearGradient>
<linearGradient id="paint74_linear_216_1260" x1="1114.41" y1="694.46" x2="727.57" y2="120.09" gradientUnits="userSpaceOnUse">
<stop offset="0.09" stop-color="#205575"/>
<stop offset="1" stop-color="#4C6182" stop-opacity="0"/>
</linearGradient>
<linearGradient id="paint75_linear_216_1260" x1="1064.6" y1="728.01" x2="677.76" y2="153.64" gradientUnits="userSpaceOnUse">
<stop offset="0.09" stop-color="#205575"/>
<stop offset="1" stop-color="#4C6182" stop-opacity="0"/>
</linearGradient>
<linearGradient id="paint76_linear_216_1260" x1="1034.06" y1="748.57" x2="647.22" y2="174.2" gradientUnits="userSpaceOnUse">
<stop offset="0.09" stop-color="#205575"/>
<stop offset="1" stop-color="#4C6182" stop-opacity="0"/>
</linearGradient>
<linearGradient id="paint77_linear_216_1260" x1="1148.61" y1="671.43" x2="761.77" y2="97.0603" gradientUnits="userSpaceOnUse">
<stop offset="0.09" stop-color="#205575"/>
<stop offset="1" stop-color="#4C6182" stop-opacity="0"/>
</linearGradient>
<linearGradient id="paint78_linear_216_1260" x1="1066.64" y1="726.63" x2="679.8" y2="152.26" gradientUnits="userSpaceOnUse">
<stop offset="0.09" stop-color="#205575"/>
<stop offset="1" stop-color="#4C6182" stop-opacity="0"/>
</linearGradient>
<linearGradient id="paint79_linear_216_1260" x1="1243.43" y1="607.56" x2="856.599" y2="33.19" gradientUnits="userSpaceOnUse">
<stop offset="0.09" stop-color="#205575"/>
<stop offset="1" stop-color="#4C6182" stop-opacity="0"/>
</linearGradient>
<linearGradient id="paint80_linear_216_1260" x1="1050.02" y1="737.83" x2="663.18" y2="163.46" gradientUnits="userSpaceOnUse">
<stop offset="0.09" stop-color="#205575"/>
<stop offset="1" stop-color="#4C6182" stop-opacity="0"/>
</linearGradient>
<linearGradient id="paint81_linear_216_1260" x1="1229.6" y1="616.88" x2="842.76" y2="42.51" gradientUnits="userSpaceOnUse">
<stop offset="0.09" stop-color="#205575"/>
<stop offset="1" stop-color="#4C6182" stop-opacity="0"/>
</linearGradient>
<linearGradient id="paint82_linear_216_1260" x1="1152.89" y1="668.54" x2="766.05" y2="94.17" gradientUnits="userSpaceOnUse">
<stop offset="0.09" stop-color="#205575"/>
<stop offset="1" stop-color="#4C6182" stop-opacity="0"/>
</linearGradient>
<linearGradient id="paint83_linear_216_1260" x1="1191.73" y1="642.38" x2="804.889" y2="68.01" gradientUnits="userSpaceOnUse">
<stop offset="0.09" stop-color="#205575"/>
<stop offset="1" stop-color="#4C6182" stop-opacity="0"/>
</linearGradient>
<linearGradient id="paint84_linear_216_1260" x1="1315.16" y1="559.26" x2="928.319" y2="-15.12" gradientUnits="userSpaceOnUse">
<stop offset="0.09" stop-color="#205575"/>
<stop offset="1" stop-color="#4C6182" stop-opacity="0"/>
</linearGradient>
<linearGradient id="paint85_linear_216_1260" x1="1283.56" y1="580.54" x2="896.72" y2="6.16" gradientUnits="userSpaceOnUse">
<stop offset="0.09" stop-color="#205575"/>
<stop offset="1" stop-color="#4C6182" stop-opacity="0"/>
</linearGradient>
<linearGradient id="paint86_linear_216_1260" x1="694.89" y1="-20.37" x2="1103.6" y2="577.93" gradientUnits="userSpaceOnUse">
<stop offset="0.09" stop-color="#F4EE8C"/>
<stop offset="1" stop-color="#F4EE8C" stop-opacity="0"/>
</linearGradient>
<linearGradient id="paint87_linear_216_1260" x1="742.4" y1="-52.82" x2="1151.11" y2="545.48" gradientUnits="userSpaceOnUse">
<stop offset="0.09" stop-color="#F4EE8C"/>
<stop offset="1" stop-color="#F4EE8C" stop-opacity="0"/>
</linearGradient>
<linearGradient id="paint88_linear_216_1260" x1="747.721" y1="-56.46" x2="1156.44" y2="541.84" gradientUnits="userSpaceOnUse">
<stop offset="0.09" stop-color="#F4EE8C"/>
<stop offset="1" stop-color="#F4EE8C" stop-opacity="0"/>
</linearGradient>
<linearGradient id="paint89_linear_216_1260" x1="712.78" y1="-32.59" x2="1121.5" y2="565.71" gradientUnits="userSpaceOnUse">
<stop offset="0.09" stop-color="#F4EE8C"/>
<stop offset="0.2" stop-color="#F4EE8C" stop-opacity="0.8"/>
<stop offset="1" stop-color="#F4EE8C" stop-opacity="0"/>
</linearGradient>
<linearGradient id="paint90_linear_216_1260" x1="743.43" y1="-53.53" x2="1152.15" y2="544.77" gradientUnits="userSpaceOnUse">
<stop offset="0.09" stop-color="#F4EE8C"/>
<stop offset="1" stop-color="#F4EE8C" stop-opacity="0"/>
</linearGradient>
<linearGradient id="paint91_linear_216_1260" x1="650.911" y1="9.67999" x2="1059.63" y2="607.97" gradientUnits="userSpaceOnUse">
<stop offset="0.09" stop-color="#F4EE8C"/>
<stop offset="1" stop-color="#F4EE8C" stop-opacity="0"/>
</linearGradient>
<linearGradient id="paint92_linear_216_1260" x1="672.559" y1="-5.10998" x2="1081.28" y2="593.19" gradientUnits="userSpaceOnUse">
<stop offset="0.09" stop-color="#F4EE8C"/>
<stop offset="1" stop-color="#F4EE8C" stop-opacity="0"/>
</linearGradient>
<linearGradient id="paint93_linear_216_1260" x1="604.339" y1="41.49" x2="1013.06" y2="639.78" gradientUnits="userSpaceOnUse">
<stop offset="0.09" stop-color="#F4EE8C"/>
<stop offset="1" stop-color="#F4EE8C" stop-opacity="0"/>
</linearGradient>
<linearGradient id="paint94_linear_216_1260" x1="657.709" y1="5.04002" x2="1066.42" y2="603.33" gradientUnits="userSpaceOnUse">
<stop offset="0.09" stop-color="#F4EE8C"/>
<stop offset="1" stop-color="#F4EE8C" stop-opacity="0"/>
</linearGradient>
<linearGradient id="paint95_linear_216_1260" x1="557.719" y1="73.34" x2="966.439" y2="671.64" gradientUnits="userSpaceOnUse">
<stop offset="0.09" stop-color="#F4EE8C"/>
<stop offset="1" stop-color="#F4EE8C" stop-opacity="0"/>
</linearGradient>
<linearGradient id="paint96_linear_216_1260" x1="576.3" y1="60.65" x2="985.02" y2="658.94" gradientUnits="userSpaceOnUse">
<stop offset="0.09" stop-color="#F4EE8C"/>
<stop offset="1" stop-color="#F4EE8C" stop-opacity="0"/>
</linearGradient>
<linearGradient id="paint97_linear_216_1260" x1="532.49" y1="90.57" x2="941.21" y2="688.87" gradientUnits="userSpaceOnUse">
<stop offset="0.09" stop-color="#F4EE8C"/>
<stop offset="1" stop-color="#F4EE8C" stop-opacity="0"/>
</linearGradient>
<linearGradient id="paint98_linear_216_1260" x1="646.42" y1="12.74" x2="1055.14" y2="611.04" gradientUnits="userSpaceOnUse">
<stop offset="0.09" stop-color="#F4EE8C"/>
<stop offset="1" stop-color="#F4EE8C" stop-opacity="0"/>
</linearGradient>
<linearGradient id="paint99_linear_216_1260" x1="767.129" y1="-69.71" x2="1175.84" y2="528.58" gradientUnits="userSpaceOnUse">
<stop offset="0.09" stop-color="#F4EE8C"/>
<stop offset="1" stop-color="#F4EE8C" stop-opacity="0"/>
</linearGradient>
<linearGradient id="paint100_linear_216_1260" x1="881.19" y1="-147.63" x2="1289.91" y2="450.66" gradientUnits="userSpaceOnUse">
<stop offset="0.09" stop-color="#F4EE8C"/>
<stop offset="1" stop-color="#F4EE8C" stop-opacity="0"/>
</linearGradient>
<linearGradient id="paint101_linear_216_1260" x1="877.88" y1="-145.38" x2="1286.6" y2="452.92" gradientUnits="userSpaceOnUse">
<stop offset="0.09" stop-color="#F4EE8C"/>
<stop offset="1" stop-color="#F4EE8C" stop-opacity="0"/>
</linearGradient>
<linearGradient id="paint102_linear_216_1260" x1="849.05" y1="-125.68" x2="1257.77" y2="472.62" gradientUnits="userSpaceOnUse">
<stop offset="0.09" stop-color="#F4EE8C"/>
<stop offset="1" stop-color="#F4EE8C" stop-opacity="0"/>
</linearGradient>
<linearGradient id="paint103_linear_216_1260" x1="819.071" y1="-105.2" x2="1227.79" y2="493.099" gradientUnits="userSpaceOnUse">
<stop offset="0.09" stop-color="#F4EE8C"/>
<stop offset="1" stop-color="#F4EE8C" stop-opacity="0"/>
</linearGradient>
<linearGradient id="paint104_linear_216_1260" x1="813.19" y1="-101.18" x2="1221.91" y2="497.11" gradientUnits="userSpaceOnUse">
<stop offset="0.09" stop-color="#F4EE8C"/>
<stop offset="1" stop-color="#F4EE8C" stop-opacity="0"/>
</linearGradient>
<clipPath id="clip0_216_1260">
<rect width="1066.67" height="600" fill="white"/>
</clipPath>
</defs>
</svg>
