<svg width="1067" height="600" viewBox="0 0 1067 600" fill="none" xmlns="http://www.w3.org/2000/svg">
<g clip-path="url(#clip0_216_810)">
<path d="M387.33 432C422.68 428.76 451.58 428.05 471.33 428C529.52 427.84 548.16 433.24 594.33 428C608.92 426.34 626.06 422.9 660.33 416C715.33 404.94 727.15 400.21 756.33 395C809.22 385.56 811.23 393.8 862.33 387C945.59 375.92 963 351 1033.33 347C1062.51 345.364 1091.78 347.719 1120.33 354L1117.33 589C1014.9 608.68 813.39 631.55 592.33 545C519.391 516.371 450.481 478.387 387.33 432Z" fill="url(#paint0_linear_216_810)"/>
<path d="M505.33 429C507.48 428.92 515.43 428.75 525.33 429C538.53 429.33 539.66 430 546.33 430C550.1 430 556.09 429.77 582.33 424C600.82 419.93 598.71 419.85 608.33 418C617.95 416.15 622.63 415.72 644.33 413C660.33 411 668.4 410 675.33 409C705.93 404.68 723.85 400.3 724.33 402C725 404.37 690.41 413.56 691.33 420C692.33 426.85 732.68 424.65 733.33 431C733.58 433.38 728.12 435.72 700.33 450C690.87 454.87 689.2 455.78 689.33 457C689.95 462.61 727.91 469.22 766.33 463C780.87 460.65 791.93 457 795.33 462C798.61 466.78 793.48 477.57 786.33 484C773.65 495.42 755.92 491.94 755.33 496C754.6 501.13 783.07 505.67 783.33 513C783.59 520.15 757 529.16 727.33 533C659.23 541.81 642.58 514.61 568.33 512C512.94 510.06 488.98 524 466.33 504C452.61 491.86 443.02 470.45 449.33 455C458.05 433.65 494.76 429.39 505.33 429Z" fill="url(#paint1_linear_216_810)"/>
<path d="M764.33 394C758.81 395.06 737.1 399.25 737.33 403C737.6 407.32 766.83 408.83 770.33 409C798.13 410.35 816.55 406.07 817.33 409C818.2 412.27 795.62 418.79 796.33 422C797.33 426.46 843.11 423.61 891.33 408C921.41 398.26 946.22 385.56 945.33 383C944.17 379.64 898.82 393.35 897.33 389C896.41 386.3 913.16 379.09 912.33 377C911.5 374.91 893.62 381.87 870.33 386C857.33 388.31 841.64 388.87 810.33 390C793.06 390.62 781.5 390.69 764.33 394Z" fill="url(#paint2_linear_216_810)"/>
<path d="M778.33 430C755.03 431.62 736.24 446.24 737.33 449C738.73 452.53 774.33 441 775.33 444C775.92 445.82 762.71 450.23 763.33 453C763.95 455.77 778.56 454.1 817.33 451C837.09 449.42 844.1 449 844.33 447C844.72 443.59 825.27 438.73 814.33 436C796.59 431.57 787.71 429.35 778.33 430Z" fill="url(#paint3_linear_216_810)"/>
<path d="M1015.33 349C1012.76 350 982.971 361.51 984.331 371C985.061 376 993.961 376.66 994.331 381C994.971 388.39 969.931 396 940.331 406C916.611 414 877.471 427.26 878.331 431C879.161 434.59 916.331 426.52 918.331 433C918.681 434.1 918.431 436.92 893.331 453C878.331 462.6 870.871 467.4 863.331 471C832.181 485.89 804.171 485.11 804.331 488C804.491 490.89 834.981 489.33 836.331 496C837.761 503.08 804.441 509.9 804.331 521C804.241 530.74 829.791 538.19 886.331 553C968.151 574.43 988.211 578.09 990.331 573C993.941 564.34 941.031 541.52 945.331 525C950.221 506.22 1023.52 516.9 1029.33 496C1033.64 480.51 996.811 462.4 1001.33 452C1005.96 441.35 1046.19 456.65 1106.33 451C1117.53 449.95 1173.47 444 1175.33 428C1176.33 419.22 1160.76 410.64 1152.33 406C1115.33 385.61 1078.94 392.39 1078.33 388C1077.41 381.39 1160.89 373.62 1161.33 360C1161.79 345.92 1073.43 326.91 1015.33 349Z" fill="url(#paint4_linear_216_810)"/>
<path d="M1084.33 472C1065.85 469 1046.84 473.22 1046.33 478C1045.63 484.62 1080.8 488.62 1081.33 500C1081.75 508.92 1060.65 517.08 1045.33 523C1016.22 534.26 997.33 534.64 997.33 538C997.33 541.84 1022.07 541 1062.33 549C1095.1 555.49 1104.24 561.08 1117.33 555C1131.26 548.54 1141.91 532.48 1141.33 517C1140.3 489.58 1104.42 475.23 1084.33 472Z" fill="url(#paint5_linear_216_810)"/>
<path opacity="0.7" d="M733.331 399C732.781 397.69 684.011 411.78 685.331 421C686.721 430.63 742.091 430.2 742.331 428C742.521 426.32 710.331 424.64 709.331 416C708.421 408.17 733.731 400 733.331 399Z" fill="url(#paint6_linear_216_810)"/>
<path opacity="0.7" d="M734.33 432C733.16 429.67 712.74 437.95 695.33 448C686.06 453.35 685.33 454.8 685.33 456C685.72 466.62 750.03 471.82 750.33 470C750.56 468.63 713.92 465.75 712.33 454C711 444.06 735.62 434.55 734.33 432Z" fill="url(#paint7_linear_216_810)"/>
<path opacity="0.7" d="M763.33 453C763.33 451.84 772.61 451.32 778.33 451C793.26 450.16 798.7 451.31 815.33 451C821.904 451.003 828.472 450.616 835 449.84C841.528 449.031 847.989 447.747 854.33 446C854.41 446.29 822.94 459.88 785.33 457C776.31 456.31 763.28 454.39 763.33 453Z" fill="url(#paint8_linear_216_810)"/>
<path opacity="0.7" d="M796.331 422C796.481 421.22 802.421 421.8 805.331 422C810.831 422.38 818.971 422.33 841.331 417C865.331 411.29 885.791 404.23 889.331 403C925.621 390.4 944.251 380.94 945.331 383C946.221 384.68 934.701 392.56 927.331 397C922.971 399.62 913.161 405.2 892.331 412C883.261 415 885.921 413.64 841.331 424C830.841 426.44 820.101 429 807.331 426C803.171 425 796.171 422.86 796.331 422Z" fill="url(#paint9_linear_216_810)"/>
</g>
<defs>
<linearGradient id="paint0_linear_216_810" x1="481.68" y1="273.18" x2="1460.24" y2="736.8" gradientUnits="userSpaceOnUse">
<stop stop-color="#FFC496"/>
<stop offset="0.43" stop-color="#355E54"/>
<stop offset="0.99" stop-color="#122A42"/>
</linearGradient>
<linearGradient id="paint1_linear_216_810" x1="485.86" y1="450.08" x2="1171.79" y2="505.7" gradientUnits="userSpaceOnUse">
<stop stop-color="#FFE788"/>
<stop offset="0.42" stop-color="#C2B8D6"/>
<stop offset="0.99" stop-color="#2D51AD"/>
</linearGradient>
<linearGradient id="paint2_linear_216_810" x1="492.3" y1="370.64" x2="1178.23" y2="426.25" gradientUnits="userSpaceOnUse">
<stop stop-color="#FFE788"/>
<stop offset="0.42" stop-color="#C2B8D6"/>
<stop offset="0.99" stop-color="#2D51AD"/>
</linearGradient>
<linearGradient id="paint3_linear_216_810" x1="488.39" y1="418.86" x2="1174.32" y2="474.48" gradientUnits="userSpaceOnUse">
<stop stop-color="#FFE788"/>
<stop offset="0.42" stop-color="#C2B8D6"/>
<stop offset="0.99" stop-color="#2D51AD"/>
</linearGradient>
<linearGradient id="paint4_linear_216_810" x1="649.651" y1="218.23" x2="1251.96" y2="620.84" gradientUnits="userSpaceOnUse">
<stop stop-color="#E2ECFC"/>
<stop offset="0.42" stop-color="#93AED6"/>
<stop offset="0.97" stop-color="#5C606E"/>
</linearGradient>
<linearGradient id="paint5_linear_216_810" x1="266.45" y1="168.23" x2="1191.23" y2="568.96" gradientUnits="userSpaceOnUse">
<stop stop-color="white"/>
<stop offset="0.42" stop-color="#F2F2F2"/>
<stop offset="0.97" stop-color="#9FC0F5"/>
</linearGradient>
<linearGradient id="paint6_linear_216_810" x1="1038.6" y1="599.87" x2="638.341" y2="369.98" gradientUnits="userSpaceOnUse">
<stop offset="0.09" stop-color="#205575"/>
<stop offset="1" stop-color="#4C6182" stop-opacity="0"/>
</linearGradient>
<linearGradient id="paint7_linear_216_810" x1="1023.93" y1="625.4" x2="623.67" y2="395.51" gradientUnits="userSpaceOnUse">
<stop offset="0.09" stop-color="#205575"/>
<stop offset="1" stop-color="#4C6182" stop-opacity="0"/>
</linearGradient>
<linearGradient id="paint8_linear_216_810" x1="1041.03" y1="582.97" x2="640.77" y2="353.08" gradientUnits="userSpaceOnUse">
<stop offset="0.09" stop-color="#205575"/>
<stop offset="1" stop-color="#4C6182" stop-opacity="0"/>
</linearGradient>
<linearGradient id="paint9_linear_216_810" x1="1076.71" y1="520.84" x2="676.451" y2="290.95" gradientUnits="userSpaceOnUse">
<stop offset="0.09" stop-color="#205575"/>
<stop offset="1" stop-color="#4C6182" stop-opacity="0"/>
</linearGradient>
<clipPath id="clip0_216_810">
<rect width="1066.67" height="600" fill="white"/>
</clipPath>
</defs>
</svg>
