<svg width="1067" height="600" viewBox="0 0 1067 600" fill="none" xmlns="http://www.w3.org/2000/svg">
<g clip-path="url(#clip0_216_1035)">
<path d="M569.33 344C568.511 347.057 567.509 350.063 566.33 353C562.772 361.816 557.695 369.939 551.33 377L561.33 372C560.15 374.741 558.815 377.412 557.33 380C553.536 386.63 548.822 392.69 543.33 398L556.33 391C554.43 393.96 552.43 396.96 550.33 400C546.657 405.333 542.99 410.333 539.33 415C547.83 409.57 550.84 408.38 551.33 409C551.82 409.62 550.41 411.25 547.33 415C544.43 418.54 540.74 422.95 536.33 428L547.33 424C546.13 425.95 544.8 428 543.33 430C540.018 434.621 536.339 438.969 532.33 443C541.115 447.145 550.628 449.523 560.33 450C573.905 450.588 587.385 447.477 599.33 441L583.33 424L595.33 427L581.33 408L593.33 411L582.33 395L594.33 399L576.33 376L593.33 387C586.346 377.98 580.313 368.262 575.33 358C573 353.15 571 348.46 569.33 344Z" fill="url(#paint0_linear_216_1035)"/>
<path d="M568.33 346C567.99 346.06 568 346.81 567.33 350C567.131 351.363 566.796 352.703 566.33 354C564.94 356.55 562.64 355.74 561.33 358C560.14 360.06 561.61 361.48 560.33 364C559.57 365.5 558.52 366.05 557.33 367C552.81 370.62 550.7 376.51 551.33 377C551.96 377.49 556.15 374 559.33 370C561.76 366.92 562.72 364.57 565.33 364C567.33 363.57 568 364.64 569.33 364C572.21 362.63 571.9 356.27 571.33 353C570.7 349.35 569.1 345.86 568.33 346Z" fill="url(#paint1_linear_216_1035)"/>
<path d="M563.329 370C559.449 375.83 559.719 375.31 559.329 376C557.509 379.31 557.949 379.33 556.329 382C554.959 384.27 554.069 385.7 552.329 387C551.179 387.86 550.749 387.84 549.329 389C548.28 389.949 547.278 390.95 546.329 392C544.229 394.12 544.079 394.05 543.329 395C542.129 396.53 540.959 398.69 541.329 399C541.699 399.31 544.849 396.81 549.329 393C551.919 390.8 553.259 389.56 554.329 390C555.789 390.59 555.189 393.64 556.329 394C557.469 394.36 559.009 391 562.329 387C566.999 381.34 570.549 380.21 570.329 377C570.229 375.53 569.449 375.26 569.329 373C569.199 370.37 570.169 369.16 569.329 368C568.966 367.578 568.496 367.262 567.967 367.086C567.439 366.91 566.873 366.88 566.329 367C565.159 367.24 564.559 368.16 563.329 370Z" fill="url(#paint2_linear_216_1035)"/>
<path d="M560.33 396C557.988 397.768 556.244 400.211 555.33 403C554.72 404.93 555.11 405.28 554.33 407C553.75 408.29 553.02 409.23 550.33 412C547.88 414.53 547.72 414.54 546.33 416C544.28 418.17 544.08 418.72 541.33 422C537.9 426.1 536.1 427.73 536.33 428C536.56 428.27 539.68 425 545.33 423C548.63 421.86 549.45 422.38 551.33 421C553.97 419.08 553.9 417 556.33 416C558.48 415.16 559.28 416.51 561.33 416C565.68 414.92 567.33 407.57 568.33 403C569.33 398.69 570.04 395.32 568.33 394C566.31 392.43 562.09 394.74 560.33 396Z" fill="url(#paint3_linear_216_1035)"/>
<path d="M559.329 422C558.989 422.26 559.249 422.08 551.329 430L547.329 434C545.099 436 544.219 436.43 544.329 437C544.579 438.28 549.659 439.32 554.329 438C555.989 437.53 558.509 436.51 567.329 427C573.569 420.27 573.569 419.43 573.329 419C572.349 417.19 564.679 418 559.329 422Z" fill="url(#paint4_linear_216_1035)"/>
<path d="M601.33 328C600.257 335.043 597.883 341.825 594.33 348C587.9 359.05 578.91 365.5 579.33 366C579.56 366.27 582.25 364.62 593.33 356C591.447 360.561 589.101 364.917 586.33 369C581.935 375.482 576.534 381.221 570.33 386L587.33 379C585.6 382.488 583.594 385.832 581.33 389C577.615 394.205 573.246 398.91 568.33 403L585.33 398C584.041 401.509 582.364 404.863 580.33 408C576.431 413.991 571.321 419.101 565.33 423L584.33 415C581.737 418.333 579.07 421.667 576.33 425C570.65 431.973 564.983 438.64 559.33 445L580.33 440L545.33 465C561.6 464.85 579.33 465.38 598.33 467C615.17 468.43 630.88 470.53 645.33 473L616.33 448C621.177 450.427 626.177 453.093 631.33 456C636.63 459 641.63 462 646.33 465C635.602 457.174 626.156 447.728 618.33 437L638.33 449L616.33 417L640.33 429C628.45 420.863 618.818 409.856 612.33 397L633.33 408L607.33 375L623.33 385C616.041 376.929 610.583 367.377 607.33 357L620.33 366C610.898 355.136 604.362 342.065 601.33 328Z" fill="url(#paint5_linear_216_1035)"/>
<path d="M593.33 356C592.223 357.249 591.219 358.587 590.33 360C586.87 365.64 587.83 367.74 585.33 371C583.33 373.67 582.01 373.1 578.33 376C574.965 378.709 572.235 382.122 570.33 386C576.4 383.541 581.861 379.787 586.33 375C589.22 371.84 592.33 367.44 593.33 368C594.19 368.46 592.99 371.9 593.33 372C593.67 372.1 595.78 367.13 597.33 361C598.33 357 599.47 352.56 598.33 352C597.19 351.44 594.9 354.24 593.33 356Z" fill="url(#paint6_linear_216_1035)"/>
<path d="M602.33 331C601.4 331.2 601.26 334.37 601.33 336C601.4 337.63 601.75 338.23 602.33 341C603.12 344.73 602.74 344.91 603.33 347C603.977 349.158 604.992 351.188 606.33 353C608.023 355.285 610.045 357.307 612.33 359C614.55 360.83 617.79 363.51 618.33 363C618.87 362.49 616.88 358.13 613.33 355C611.22 353.14 609.8 352.78 609.33 351C608.86 349.22 610.06 348.12 609.33 346C608.85 344.6 608.17 344.61 607.33 343C606.33 341.16 606.71 340.07 606.33 338C605.68 334.33 603.39 330.78 602.33 331Z" fill="url(#paint7_linear_216_1035)"/>
<path d="M590.33 377C588.715 378.019 587.349 379.385 586.33 381C585.55 382.3 585.61 382.8 584.33 385C583.748 386.054 583.079 387.057 582.33 388C581.443 389.107 580.437 390.113 579.33 391C576.06 393.7 569.72 400.19 570.33 401C570.77 401.58 574.98 399.67 578.33 397C580.33 395.37 581.01 394.33 583.33 393C585.65 391.67 586.33 392 588.33 391C593.21 388.57 595.28 383.55 596.33 381C597.27 378.74 598.39 376 597.33 375C596 373.74 592 375.88 590.33 377Z" fill="url(#paint8_linear_216_1035)"/>
<path d="M601.329 393C600.109 393.32 600.049 397.4 600.329 400C600.699 403.34 601.549 403.53 602.329 407C603.699 413 601.879 415.76 604.329 419C604.439 419.14 606.189 421.41 607.329 421C608.469 420.59 608.449 417.14 608.329 414C608.185 411.313 607.851 408.64 607.329 406C606.329 400.21 605.639 398.66 605.329 398C604.559 396.34 602.579 392.68 601.329 393Z" fill="url(#paint9_linear_216_1035)"/>
<path d="M607.33 375C606.26 375.33 605.94 378.07 606.33 380C606.67 381.63 607.33 381.69 608.33 384C609.67 387 609.01 387.92 610.33 390C610.97 391 611.33 391.2 613.33 393C616.43 395.85 616.51 396.36 618.33 398C621.92 401.22 626.67 403.76 627.33 403C627.59 402.71 627.12 402.05 625.33 399C622.43 394 622.62 393.92 621.33 392C619.63 389.46 618.76 388.85 616.33 386C610.26 378.87 608.78 374.55 607.33 375Z" fill="url(#paint10_linear_216_1035)"/>
<path d="M588.331 394C586.64 395.737 585.283 397.771 584.331 400C583.031 402.88 583.521 403.08 582.331 405C581.511 406.33 581.011 406.64 579.331 409C578.071 410.77 578.161 410.86 577.331 412C575.633 414.281 573.612 416.302 571.331 418C568.771 420 567.191 420.65 567.331 421C567.471 421.35 570.021 421.15 572.331 420C575.811 418.27 575.411 416.23 579.331 414C580.691 413.23 583.331 412 583.331 412C583.331 412 587.031 409.89 588.331 409C593.811 405.26 595.571 396.74 594.331 396C593.491 395.49 591.121 398.56 590.331 398C589.541 397.44 592.181 392.57 591.331 392C590.741 391.6 588.791 393.54 588.331 394Z" fill="url(#paint11_linear_216_1035)"/>
<path d="M590.331 413C585.721 415.8 585.181 415.9 584.331 417C582.811 419 583.801 419.7 582.331 422C580.661 424.63 579.051 424.22 576.331 427C573.771 429.63 574.811 430.41 572.331 433C569.851 435.59 568.691 435.05 565.331 438C562.861 440.17 561.011 442.63 561.331 443C561.891 443.64 568.761 437.63 570.331 439C571.271 439.81 569.741 442.7 570.331 443C571.131 443.4 573.251 437.84 578.331 436C579.731 435.49 580.181 435.69 581.331 435C583.711 433.58 584.161 431.32 585.331 429C587.961 423.8 590.801 425 593.331 420C595.231 416.27 595.631 411.69 594.331 411C593.871 410.75 593.431 411.13 590.331 413Z" fill="url(#paint12_linear_216_1035)"/>
<path d="M602.33 429C600.75 429.33 600.33 433.77 600.33 436C600.33 438.23 600.77 438.93 602.33 445C603.8 450.69 603.65 451 604.33 452C606.23 454.9 608.77 454.89 613.33 457C622.57 461.27 625.33 467.4 628.33 466C629.72 465.35 630.33 463.43 630.33 462C630.22 458.7 626.33 457.91 620.33 452C618.171 449.807 616.167 447.469 614.33 445C612.56 442.72 611.25 440.8 609.33 438C604.43 430.82 603.48 428.76 602.33 429Z" fill="url(#paint13_linear_216_1035)"/>
<path d="M-31.6699 416C0.951342 411.671 33.3277 405.663 65.3301 398C120.82 384.73 130.55 377.21 164.33 373C195.47 369.12 226.42 373.75 288.33 383C305.2 385.52 354.9 393.23 422.33 409C445.81 414.49 488.59 424.58 541.33 441C620.58 465.68 622.67 473.62 683.33 493C766.63 519.61 787.24 512.47 886.33 538C934.145 550.316 981.221 565.34 1027.33 583L1018.33 645L-51.6699 628C-44.9966 557.333 -38.3299 486.667 -31.6699 416Z" fill="url(#paint14_linear_216_1035)"/>
<path d="M-17.6699 409C-6.44839 403.151 5.75578 399.422 18.3301 398C33.1601 396.38 36.1801 399.46 49.3301 397C67.3301 393.64 67.4401 386.8 87.3301 382C99.6101 379 100.8 381.34 119.33 378C128.799 376.249 138.151 373.911 147.33 371C152.66 369.45 168.84 365.19 218.33 368C224.27 368.34 301.33 372.86 301.33 380C301.33 382.5 288.33 385 262.33 390C243.09 393.67 231.7 395.27 221.33 397C199.95 400.56 153.23 408.34 153.33 415C153.39 418.64 189.33 409.19 223.33 428C228.72 431 245.41 438.13 244.33 444C243.06 451 218.52 448.05 169.33 457C164.95 457.8 170.62 456.82 111.33 476C105.01 478 94.9301 481.3 94.3301 487C93.9101 491 98.5201 493.74 112.33 507C123.84 518 125.55 520.88 125.33 524C124.81 531.58 113.47 532.89 113.33 538C113.03 549.77 173.09 550.65 182.33 578C182.63 578.88 185.43 587.57 181.33 595C175.01 606.46 156.93 606.48 135.33 608C93.6201 610.93 105.59 614.74 66.3301 617C32.2803 618.921 -1.87519 617.582 -35.6699 613L-17.6699 409Z" fill="url(#paint15_linear_216_1035)"/>
<path d="M285.329 411C274.259 414.22 259.569 420.73 260.329 425C260.999 428.74 272.709 426 285.329 433C298.649 440.34 298.469 450.43 307.329 458C330.059 477.42 383.079 455.37 382.329 448C381.939 444.05 366.459 448 350.329 436C336.549 425.76 339.399 416.61 327.329 410C313.999 402.67 298.269 407.23 285.329 411Z" fill="url(#paint16_linear_216_1035)"/>
<path d="M137.33 491C133.93 497.68 137.99 508.51 144.33 512C151.49 515.94 158.21 508.68 173.33 507C184.33 505.77 192.55 508.32 204.33 512C228.26 519.46 228.94 527.91 248.33 532C255.12 533.43 274.83 537.59 283.33 527C285.167 524.62 286.4 521.83 286.923 518.869C287.445 515.908 287.242 512.865 286.33 510C285.39 507.25 282.9 502.54 258.33 493C242.84 487 232.88 483.21 218.33 482C213.96 481.64 210.72 481.64 200.33 482C143.36 484 139.06 487.61 137.33 491Z" fill="url(#paint17_linear_216_1035)"/>
<path d="M282.331 480C280.931 484.51 293.221 493.7 304.331 498C320.801 504.38 331.681 498.87 334.331 504C337.781 510.67 323.071 527.06 307.331 536C295.061 543 283.191 544.84 275.331 546C255.251 549 252.951 543.88 239.331 548C223.871 552.68 223.581 560.22 209.331 563C194.081 566 182.261 559.69 181.331 562C179.831 565.74 213.051 577 212.331 590C211.711 601.27 186.241 604.8 186.331 614C186.391 619 193.991 625.13 220.331 632C365.681 624.8 483.331 630.64 567.331 638C611.071 641.83 734.041 653.82 736.331 641C737.911 632.18 681.231 617.93 683.331 605C683.931 601.32 689.331 597.2 763.331 582C785.711 577.4 802.911 574.14 803.331 568C803.851 560.43 778.431 554.63 779.331 550C780.671 543.14 837.081 552.41 839.331 544C841.221 537 804.271 521.46 798.331 519C759.511 502.89 731.891 499.4 706.331 494C639.281 479.83 641.091 465.21 570.331 450C524.931 440.24 485.511 437.95 484.331 443C482.861 449.32 542.141 464.22 540.331 476C539.191 483.44 514.331 485.44 507.331 486C480.661 488.15 466.441 481.8 444.331 479C418.961 475.79 418.561 481.73 379.331 483C320.441 484.91 284.601 472.71 282.331 480Z" fill="url(#paint18_linear_216_1035)"/>
<path d="M335.33 391C333.19 396.35 352.05 410.71 364.33 418C375.49 424.62 381.69 425.68 389.33 434C396.97 442.32 395.28 446 401.33 453C414.99 468.83 441.2 470.59 443.33 466C445.46 461.41 422.21 451.68 424.33 441C426.13 432 445.03 427.78 456.33 427C466.58 426.29 473.02 428.21 485.33 431C489.93 432 535.25 442.23 536.33 439C537.26 436.23 506.66 421.08 470.33 411C456.66 407.21 453.26 407.21 405.33 399C352.41 389.94 337.1 386.6 335.33 391Z" fill="url(#paint19_linear_216_1035)"/>
<path d="M907.33 544C897.651 543.692 887.964 544.026 878.33 545C869.55 545.88 853.61 547.49 853.33 551C853 555.24 875.75 559.44 875.33 562C874.86 564.92 845.76 556.24 820.33 570C818.48 571 799.56 581.44 801.33 590C803.1 598.56 824.4 598.67 884.33 605C936.49 610.5 941.81 612.71 960.33 611C983.198 608.824 1005.52 602.736 1026.33 593C1026.67 589.67 1027 586.33 1027.33 583C989.127 565.01 948.809 551.907 907.33 544Z" fill="url(#paint20_linear_216_1035)"/>
<path d="M108.33 477C119.773 470.223 131.826 464.531 144.33 460C153.467 456.687 162.823 454.014 172.33 452C177.62 450.89 183.33 449.92 201.33 448C227.92 445.18 244.06 443.46 244.33 445C244.6 446.54 228.7 450.61 219.33 453C205.98 456.41 199.19 457.43 182.33 461C168.76 463.87 168.84 464.12 151.33 468C141.08 470.27 126.39 473.44 108.33 477Z" fill="url(#paint21_linear_216_1035)"/>
<path d="M124.331 521C122.851 520 118.881 525.52 110.331 532C92.5308 545.51 75.0008 547.85 75.3308 549C75.4608 549.43 77.8508 549 100.331 544C108.221 542.25 112.231 541.33 115.331 539C123.201 533.09 126.181 522.28 124.331 521Z" fill="url(#paint22_linear_216_1035)"/>
<path d="M145.331 513C145.091 510.92 153.881 508.32 158.331 507C168.014 503.928 178.231 502.907 188.331 504C191.931 504.4 196.551 505.19 227.331 518C243.841 524.87 247.731 526.81 255.331 527C258.131 527.07 274.271 527.47 280.331 518C283.931 512.39 282.211 506.08 283.331 506C284.741 505.9 288.841 515.6 285.331 524C282.861 529.94 277.591 532.81 275.331 534C266.011 538.92 254.971 538.23 233.331 532C210.171 525.33 211.241 522.79 196.331 519C168.001 511.81 145.721 516.29 145.331 513Z" fill="url(#paint23_linear_216_1035)"/>
<path d="M153.33 415C150.78 414.25 146.33 412.28 146.33 410C146.33 405.6 162.81 401.89 179.33 399C200.22 395.35 231.55 391.2 274.33 390C270.14 390.92 263.5 392.34 255.33 394C225.86 400 224.47 399.26 208.33 403C184.74 408.47 172.95 411.21 171.33 412C168.37 413.45 161.05 417.27 153.33 415Z" fill="url(#paint24_linear_216_1035)"/>
<path d="M276.33 429C281.31 436.529 287.003 443.561 293.33 450C302.28 459.11 307.55 464.46 316.33 468C331.17 474 345.14 470.35 350.33 469C362.292 465.818 373.066 459.215 381.33 450C374.183 454.187 366.421 457.224 358.33 459C350.91 460.62 342.09 462.55 332.33 460C321.06 457.05 318.77 450.8 305.33 442C296.391 436.198 286.609 431.813 276.33 429Z" fill="url(#paint25_linear_216_1035)"/>
<path d="M395.33 444C395.575 448.596 396.949 453.061 399.33 457C406.19 468.11 419.06 470.16 424.33 471C432.21 472.26 444.21 472 445.33 468C445.65 466.86 445.5 464 436.33 458C437.5 460.38 438.61 463.44 437.33 465C434.91 468 425.33 463.76 421.33 462C411.627 457.655 402.812 451.552 395.33 444Z" fill="url(#paint26_linear_216_1035)"/>
<path d="M425.33 446C423.9 443.49 421.99 439.18 423.33 435C426.09 426.42 440.45 424.7 446.33 424C454.73 423 461.15 424.2 470.33 426C478.835 427.67 487.194 430.01 495.33 433C477.74 432.77 465.11 431.87 456.33 431C452.81 430.65 448.03 430.12 442.33 432C433.67 434.86 428.26 441.52 425.33 446Z" fill="url(#paint27_linear_216_1035)"/>
<path d="M288.33 489C291.919 494.109 296.732 498.235 302.33 501C314.98 507 326.78 501.5 330.33 507C331.68 509.09 332.03 513 327.33 521C333.75 515.3 342.83 509.27 354.33 508C368.19 506.47 379.7 512.5 380.33 511C380.96 509.5 370.82 502.39 359.33 498C345.4 492.67 321.57 486.11 288.33 489Z" fill="url(#paint28_linear_216_1035)"/>
<path d="M839.331 544C838.871 542.08 830.331 542.69 813.331 544C785.571 546.13 770.461 547.29 770.331 550C770.181 553.18 790.591 559.34 811.331 556C826.141 553.62 840.001 546.58 839.331 544Z" fill="url(#paint29_linear_216_1035)"/>
<path d="M804.33 575C804.05 573.77 799.04 573.74 777.33 576C719.33 582 704.33 587.49 693.33 599C690.33 602.1 684.72 608 686.33 611C689.33 616.58 716.33 607.46 770.33 589C796 580.21 804.73 576.7 804.33 575Z" fill="url(#paint30_linear_216_1035)"/>
<path opacity="0.6" d="M114.33 392C125.164 381.879 138.158 374.355 152.33 370C167.01 365.61 178.92 366.1 193.33 367C232.17 369.43 251.59 370.65 276.33 375C323.07 383.21 361.6 394.88 361.33 396C361.06 397.12 322.48 387 261.33 379C210.73 372.36 189.65 373 170.33 376C151.067 378.968 132.253 384.343 114.33 392Z" fill="url(#paint31_linear_216_1035)"/>
<path opacity="0.6" d="M153.33 415C147.11 418.38 140.72 422.28 141.33 424C142.33 426.76 160.39 421.08 176.33 420C192.74 418.89 215.27 422.08 243.33 440C231.334 429.076 216.94 421.123 201.307 416.78C185.675 412.438 169.241 411.828 153.33 415Z" fill="url(#paint32_linear_216_1035)"/>
<path opacity="0.6" d="M261.331 426C261.313 424.282 261.654 422.579 262.331 421C264.511 416.09 269.881 414.17 286.331 410C300.331 406.44 307.391 404.66 315.331 406C323.871 407.44 331.691 411.59 331.331 413C330.971 414.41 320.711 412.37 311.331 412C299.311 411.53 282.421 413.8 261.331 426Z" fill="url(#paint33_linear_216_1035)"/>
<path d="M150.33 486C154.57 485.52 161.2 484.79 169.33 484C209.75 480.05 218.49 481.18 223.33 482C223.89 482.09 223.15 482 250.33 490C264.87 494.29 272.2 496.43 279.33 503C282.481 505.915 285.177 509.286 287.33 513C272.578 507.572 257.558 502.899 242.33 499C225.567 494.557 208.53 491.217 191.33 489C177.727 487.267 164.041 486.265 150.33 486Z" fill="url(#paint34_linear_216_1035)"/>
<path d="M282.33 480C284.589 479.095 286.934 478.425 289.33 478C295.002 477.093 300.804 477.434 306.33 479C314.82 481 323.67 480.94 332.33 482C348.47 484 361.26 483.43 371.33 483C384.52 482.44 385.79 481.4 416.33 479C424.46 478.36 428.58 478 431.33 478C444.901 477.812 458.412 479.839 471.33 484C457.92 484.08 437.38 484.62 412.33 487C383.33 489.76 373.83 492.56 356.33 493C338.83 493.44 313.64 491.54 282.33 480Z" fill="url(#paint35_linear_216_1035)"/>
<path d="M302.33 538C306.01 535.68 311.66 532 318.33 527C325.22 521.87 325.4 521.2 327.33 520C339.44 512.51 352.51 526.45 377.33 529C394.8 530.8 396.38 524.53 417.33 526C429.337 526.866 441.14 529.564 452.33 534C432.66 533.233 412.963 533.566 393.33 535C371.76 536.6 355.54 539.19 328.33 539C317.2 538.92 308.12 538.41 302.33 538Z" fill="url(#paint36_linear_216_1035)"/>
<path d="M485.33 446C485.83 444.2 500.14 446.78 501.33 447C507.69 448.15 517.13 450.51 530.33 457C537.51 460.52 540.12 462.48 549.33 468C568.71 479.61 586.55 488.59 586.33 489C586.11 489.41 571.91 477.27 554.33 479C550.06 479.42 549.18 480.3 534.33 483C529.71 483.84 518.53 485.8 518.33 485C518.07 483.9 539.52 481.38 540.33 475C541.7 464.32 484.32 449.64 485.33 446Z" fill="url(#paint37_linear_216_1035)"/>
<path d="M181.33 562C181.64 561.22 186.89 563.76 196.33 564C201.74 564.296 207.16 563.619 212.33 562C219.11 559.75 219.87 557.33 228.33 553C233.371 550.294 238.753 548.276 244.33 547C258.49 544.08 271.46 548.75 271.33 550C271.19 551.44 253.81 548.57 252.33 553C250.33 559.14 281.05 572.48 279.33 577C278.15 580.12 263.52 573.86 238.33 574C222.46 574.09 218.21 576.64 206.33 574C191.86 570.79 180.87 563.17 181.33 562Z" fill="url(#paint38_linear_216_1035)"/>
<path d="M356.331 440C354.833 441.827 353.158 443.502 351.331 445C341.971 452.7 331.251 453.59 331.331 454C331.411 454.41 342.021 452.29 351.331 451C369.521 448.48 382.281 449.22 382.331 448C382.331 447.2 376.801 446.89 367.331 444C363.596 442.863 359.924 441.527 356.331 440Z" fill="url(#paint39_linear_216_1035)"/>
</g>
<defs>
<linearGradient id="paint0_linear_216_1035" x1="491.92" y1="274.48" x2="577.59" y2="444.24" gradientUnits="userSpaceOnUse">
<stop offset="0.14" stop-color="#C9AF83"/>
<stop offset="0.45" stop-color="#465261"/>
<stop offset="0.99" stop-color="#08172E"/>
</linearGradient>
<linearGradient id="paint1_linear_216_1035" x1="539.73" y1="335.05" x2="645.31" y2="472.94" gradientUnits="userSpaceOnUse">
<stop stop-color="#FFE788"/>
<stop offset="0.42" stop-color="#C2B8D6"/>
<stop offset="0.99" stop-color="#2D51AD"/>
</linearGradient>
<linearGradient id="paint2_linear_216_1035" x1="526.179" y1="345.42" x2="631.749" y2="483.32" gradientUnits="userSpaceOnUse">
<stop stop-color="#FFE788"/>
<stop offset="0.42" stop-color="#C2B8D6"/>
<stop offset="0.99" stop-color="#2D51AD"/>
</linearGradient>
<linearGradient id="paint3_linear_216_1035" x1="511.04" y1="357.01" x2="616.62" y2="494.91" gradientUnits="userSpaceOnUse">
<stop stop-color="#FFE788"/>
<stop offset="0.42" stop-color="#C2B8D6"/>
<stop offset="0.99" stop-color="#2D51AD"/>
</linearGradient>
<linearGradient id="paint4_linear_216_1035" x1="506.889" y1="360.19" x2="612.459" y2="498.09" gradientUnits="userSpaceOnUse">
<stop stop-color="#FFE788"/>
<stop offset="0.42" stop-color="#C2B8D6"/>
<stop offset="0.99" stop-color="#2D51AD"/>
</linearGradient>
<linearGradient id="paint5_linear_216_1035" x1="515.18" y1="283.25" x2="621.98" y2="491.25" gradientUnits="userSpaceOnUse">
<stop offset="0.14" stop-color="#C9AF83"/>
<stop offset="0.45" stop-color="#58757A"/>
<stop offset="0.99" stop-color="#0A3635"/>
</linearGradient>
<linearGradient id="paint6_linear_216_1035" x1="573.18" y1="336.23" x2="639.92" y2="530.69" gradientUnits="userSpaceOnUse">
<stop stop-color="#FFE788"/>
<stop offset="0.42" stop-color="#C2B8D6"/>
<stop offset="0.99" stop-color="#2D51AD"/>
</linearGradient>
<linearGradient id="paint7_linear_216_1035" x1="601.23" y1="326.6" x2="667.97" y2="521.06" gradientUnits="userSpaceOnUse">
<stop stop-color="#FFE788"/>
<stop offset="0.42" stop-color="#C2B8D6"/>
<stop offset="0.99" stop-color="#2D51AD"/>
</linearGradient>
<linearGradient id="paint8_linear_216_1035" x1="566.88" y1="338.39" x2="633.61" y2="532.85" gradientUnits="userSpaceOnUse">
<stop stop-color="#FFE788"/>
<stop offset="0.42" stop-color="#C2B8D6"/>
<stop offset="0.99" stop-color="#2D51AD"/>
</linearGradient>
<linearGradient id="paint9_linear_216_1035" x1="579.169" y1="334.17" x2="645.909" y2="528.63" gradientUnits="userSpaceOnUse">
<stop stop-color="#FFE788"/>
<stop offset="0.42" stop-color="#C2B8D6"/>
<stop offset="0.99" stop-color="#2D51AD"/>
</linearGradient>
<linearGradient id="paint10_linear_216_1035" x1="595.31" y1="328.63" x2="662.05" y2="523.09" gradientUnits="userSpaceOnUse">
<stop stop-color="#FFE788"/>
<stop offset="0.42" stop-color="#C2B8D6"/>
<stop offset="0.99" stop-color="#2D51AD"/>
</linearGradient>
<linearGradient id="paint11_linear_216_1035" x1="557.891" y1="341.47" x2="624.631" y2="535.93" gradientUnits="userSpaceOnUse">
<stop stop-color="#FFE788"/>
<stop offset="0.42" stop-color="#C2B8D6"/>
<stop offset="0.99" stop-color="#2D51AD"/>
</linearGradient>
<linearGradient id="paint12_linear_216_1035" x1="549.601" y1="344.32" x2="616.341" y2="538.78" gradientUnits="userSpaceOnUse">
<stop stop-color="#FFE788"/>
<stop offset="0.42" stop-color="#C2B8D6"/>
<stop offset="0.99" stop-color="#2D51AD"/>
</linearGradient>
<linearGradient id="paint13_linear_216_1035" x1="575.61" y1="335.39" x2="642.35" y2="529.85" gradientUnits="userSpaceOnUse">
<stop stop-color="#FFE788"/>
<stop offset="0.42" stop-color="#C2B8D6"/>
<stop offset="0.99" stop-color="#2D51AD"/>
</linearGradient>
<linearGradient id="paint14_linear_216_1035" x1="165.55" y1="144.44" x2="583.41" y2="742.24" gradientUnits="userSpaceOnUse">
<stop stop-color="#FFC496"/>
<stop offset="0.43" stop-color="#355E54"/>
<stop offset="0.99" stop-color="#122A42"/>
</linearGradient>
<linearGradient id="paint15_linear_216_1035" x1="47.9001" y1="390.92" x2="439.26" y2="876.5" gradientUnits="userSpaceOnUse">
<stop stop-color="#FFE788"/>
<stop offset="0.42" stop-color="#C2B8D6"/>
<stop offset="0.99" stop-color="#2D51AD"/>
</linearGradient>
<linearGradient id="paint16_linear_216_1035" x1="191.389" y1="275.27" x2="582.749" y2="760.84" gradientUnits="userSpaceOnUse">
<stop stop-color="#FFE788"/>
<stop offset="0.42" stop-color="#C2B8D6"/>
<stop offset="0.99" stop-color="#2D51AD"/>
</linearGradient>
<linearGradient id="paint17_linear_216_1035" x1="90.5799" y1="356.52" x2="481.94" y2="842.1" gradientUnits="userSpaceOnUse">
<stop stop-color="#FFE788"/>
<stop offset="0.42" stop-color="#C2B8D6"/>
<stop offset="0.99" stop-color="#2D51AD"/>
</linearGradient>
<linearGradient id="paint18_linear_216_1035" x1="237.821" y1="237.85" x2="629.181" y2="723.43" gradientUnits="userSpaceOnUse">
<stop stop-color="#FFE788"/>
<stop offset="0.42" stop-color="#C2B8D6"/>
<stop offset="0.99" stop-color="#2D51AD"/>
</linearGradient>
<linearGradient id="paint19_linear_216_1035" x1="270.649" y1="211.39" x2="662.009" y2="696.97" gradientUnits="userSpaceOnUse">
<stop stop-color="#FFE788"/>
<stop offset="0.42" stop-color="#C2B8D6"/>
<stop offset="0.99" stop-color="#2D51AD"/>
</linearGradient>
<linearGradient id="paint20_linear_216_1035" x1="1052.17" y1="322.65" x2="557.98" y2="1277.45" gradientUnits="userSpaceOnUse">
<stop stop-color="white"/>
<stop offset="0.42" stop-color="#F2F2F2"/>
<stop offset="0.97" stop-color="#9FC0F5"/>
</linearGradient>
<linearGradient id="paint21_linear_216_1035" x1="46.4701" y1="910.85" x2="241.27" y2="236.12" gradientUnits="userSpaceOnUse">
<stop offset="0.09" stop-color="#205575" stop-opacity="0.8"/>
<stop offset="1" stop-color="#4C6182" stop-opacity="0"/>
</linearGradient>
<linearGradient id="paint22_linear_216_1035" x1="-3.79923" y1="896.34" x2="191.011" y2="221.61" gradientUnits="userSpaceOnUse">
<stop offset="0.09" stop-color="#205575"/>
<stop offset="1" stop-color="#4C6182" stop-opacity="0"/>
</linearGradient>
<linearGradient id="paint23_linear_216_1035" x1="97.801" y1="925.67" x2="292.611" y2="250.94" gradientUnits="userSpaceOnUse">
<stop offset="0.09" stop-color="#0D2330"/>
<stop offset="1" stop-color="#4C6182" stop-opacity="0"/>
</linearGradient>
<linearGradient id="paint24_linear_216_1035" x1="61.5501" y1="915.2" x2="256.35" y2="240.47" gradientUnits="userSpaceOnUse">
<stop offset="0.09" stop-color="#0D2330"/>
<stop offset="1" stop-color="#4C6182" stop-opacity="0"/>
</linearGradient>
<linearGradient id="paint25_linear_216_1035" x1="181.49" y1="949.83" x2="376.3" y2="275.1" gradientUnits="userSpaceOnUse">
<stop offset="0.09" stop-color="#0D2330"/>
<stop offset="1" stop-color="#4C6182" stop-opacity="0"/>
</linearGradient>
<linearGradient id="paint26_linear_216_1035" x1="270.35" y1="975.49" x2="465.15" y2="300.76" gradientUnits="userSpaceOnUse">
<stop offset="0.09" stop-color="#0D2330"/>
<stop offset="1" stop-color="#4C6182" stop-opacity="0"/>
</linearGradient>
<linearGradient id="paint27_linear_216_1035" x1="300.48" y1="984.19" x2="495.29" y2="309.46" gradientUnits="userSpaceOnUse">
<stop offset="0.09" stop-color="#205575"/>
<stop offset="1" stop-color="#4C6182" stop-opacity="0"/>
</linearGradient>
<linearGradient id="paint28_linear_216_1035" x1="202.69" y1="955.95" x2="397.5" y2="281.22" gradientUnits="userSpaceOnUse">
<stop offset="0.09" stop-color="#0D2330"/>
<stop offset="1" stop-color="#4C6182" stop-opacity="0"/>
</linearGradient>
<linearGradient id="paint29_linear_216_1035" x1="649.551" y1="1084.97" x2="844.361" y2="410.24" gradientUnits="userSpaceOnUse">
<stop offset="0.09" stop-color="#205575"/>
<stop offset="1" stop-color="#4C6182" stop-opacity="0"/>
</linearGradient>
<linearGradient id="paint30_linear_216_1035" x1="606.52" y1="1072.55" x2="801.32" y2="397.82" gradientUnits="userSpaceOnUse">
<stop offset="0.09" stop-color="#205575"/>
<stop offset="1" stop-color="#4C6182" stop-opacity="0"/>
</linearGradient>
<linearGradient id="paint31_linear_216_1035" x1="112.51" y1="9.23002" x2="365.93" y2="787.25" gradientUnits="userSpaceOnUse">
<stop offset="0.1" stop-color="#F4F3E3"/>
<stop offset="1" stop-color="#F4F2D7" stop-opacity="0"/>
</linearGradient>
<linearGradient id="paint32_linear_216_1035" x1="60.1795" y1="26.2701" x2="313.6" y2="804.3" gradientUnits="userSpaceOnUse">
<stop offset="0.1" stop-color="#F4F3E3"/>
<stop offset="1" stop-color="#F4F2D7" stop-opacity="0"/>
</linearGradient>
<linearGradient id="paint33_linear_216_1035" x1="157.921" y1="-5.55999" x2="411.331" y2="772.46" gradientUnits="userSpaceOnUse">
<stop offset="0.1" stop-color="#F4F3E3"/>
<stop offset="1" stop-color="#F4F2D7" stop-opacity="0"/>
</linearGradient>
<linearGradient id="paint34_linear_216_1035" x1="64.2601" y1="24.94" x2="317.68" y2="802.97" gradientUnits="userSpaceOnUse">
<stop offset="0.1" stop-color="#F4F3E3"/>
<stop offset="1" stop-color="#F4F2D7" stop-opacity="0"/>
</linearGradient>
<linearGradient id="paint35_linear_216_1035" x1="212.26" y1="-23.26" x2="465.68" y2="754.76" gradientUnits="userSpaceOnUse">
<stop offset="0.1" stop-color="#F4F3E3"/>
<stop offset="1" stop-color="#F4F2D7" stop-opacity="0"/>
</linearGradient>
<linearGradient id="paint36_linear_216_1035" x1="196.81" y1="-18.23" x2="450.23" y2="759.8" gradientUnits="userSpaceOnUse">
<stop offset="0.1" stop-color="#F4F3E3"/>
<stop offset="1" stop-color="#F4F2D7" stop-opacity="0"/>
</linearGradient>
<linearGradient id="paint37_linear_216_1035" x1="360.25" y1="-71.46" x2="613.67" y2="706.56" gradientUnits="userSpaceOnUse">
<stop offset="0.1" stop-color="#F4F3E3"/>
<stop offset="1" stop-color="#F4F2D7" stop-opacity="0"/>
</linearGradient>
<linearGradient id="paint38_linear_216_1035" x1="54.3903" y1="28.16" x2="307.8" y2="806.19" gradientUnits="userSpaceOnUse">
<stop offset="0.1" stop-color="#F4F3E3"/>
<stop offset="1" stop-color="#F4F2D7" stop-opacity="0"/>
</linearGradient>
<linearGradient id="paint39_linear_216_1035" x1="207.641" y1="75.94" x2="419.571" y2="608.7" gradientUnits="userSpaceOnUse">
<stop offset="0.09" stop-color="#F4EE8C"/>
<stop offset="1" stop-color="#F4EE8C" stop-opacity="0"/>
</linearGradient>
<clipPath id="clip0_216_1035">
<rect width="1066.67" height="600" fill="white"/>
</clipPath>
</defs>
</svg>
